<svg xmlns="http://www.w3.org/2000/svg" viewBox="0 0 129.41 72.02"><defs><style>.cls-1{fill:#fdfdfd;}</style></defs><g id="Camada_2" data-name="Camada 2"><g id="Base"><path id="AC" class="cls-1" d="M126.29,48.51,129.41,50,120,57.22h-2.47L113,60.51l-2.3,3.62-2.47-.82-4.28.66-2.79,4.27-3.12,2L92.25,72l-.82-2.79-10.36-1-5.76.5-4.11-.83-6.9,2.8L61,68.24l-2,1.32V48.84l.83-7.4-4.94,3.94-2.46,2.8-3.29,2.14-3.46,1.31H31.57l.66-2.13-4.11-7.07L20.72,41H13.48L18.09,35l-.33-1.81-3.45-4.77-3.13-2.14L10.85,24,8.06,22.36,5.59,16l-2-1,1.15-3.12L.33,8.22,0,4.44,4.77,3.29,3.12,0,23.35,8.39,63.8,18.58l10,5.26Z"/></g></g></svg>