<svg xmlns="http://www.w3.org/2000/svg" viewBox="0 0 307.66 214.1"><defs><style>.cls-1{fill:#fdfdfd;}</style></defs><g id="Camada_2" data-name="Camada 2"><g id="Base"><path id="AM" class="cls-1" d="M263.76,35.52l.16,9.7L266.06,47l-.16,3.78,2.46,2.3,2.8,1.32.66,3,5.92,5.1L282.18,65l3,2.63,10.19,4.12L297,73.83l4.11,1.65.16,2.46,2,.83,2.14-1,2,1.81.32,2.14-6.57,14.14L274,154.41l-3.12,4.77,1.64,3.78,3.29,3.29,1,3.12-1.48,1.81-.33,3.78-2.47,3.13,1.16,5.26-2.8,10.19-1.32,1-54.1.49-2.13-1.48-3,3.29-4.28-2-.49-2.8-2.3-.49L201.77,188l-2.8-.16-3.29-5.43-3.12-1H181.38l-1,2.79-2.63,2.14-3.13.82v3.62l-1.31,2.46-2.63.5L171,198h-4.61l-3.12,1.48-3.95-.49-1.81,1.15-.66,3.45-2.13,3h-1.81l-1.15-2.79L147,207.19l-3,.17-1.81,2-3.45-3h-7.9v2l-2,2.14-4.11,2-1.65,1.65L70.71,189.43l-10-5.26L20.23,174,0,165.59l.66-3.78L2.14,160l5.92-4.11,2-.17,1.81-2.3L10,147l1.81-3.46,2.3-3.12.49-4.28,1.48-3.61-.49-2.14,4.61-1.32L30.59,121l3.12-1.81,6.91-1.15,2.63.16,4.93-1.48,2,.33L53.28,113l3.45.66,3-1,4,3.62h3l1.48-2.47,5.26-28.45,4.44-25L77,57.22l-3.13-4.76-.33-4.28-5.42-3.29-2.14-2.46.49-13.16,3.46-.33,6.9-2.3,1.65,1.64,3.12-1.15.66-3-2.47-3-5.42-.66-4.44.33L69.72,9.37l4.93-1.15L78.77,9H99.65L98,6.74l2.63-1.64,2,3.62,3.62-1.32,3.45-4.28,4.11-1,4.44,7.23.66,3-.17,6.42,3.62-.83,8.39,7.57,5.26,1L142.73,22l3.62,1.81-1.15,2.63,2.47.83,2.13-3.79,2.47-.82.82-3.12,2-.17,3.28-2.3,2,.33,5.09-4.27,2.47.82,3.62-3.13.66-4.77,1-1.15,4.28-.49,2.47-2,3.61-1L184,0l3.78,1,2.14,2.46L196,5.1l-.16,4.11-1.32,2,3.12,3.62,3,10.52L199,26.47l.82,3.46-1.31,5.26.82,2.63-1.15,1.48,1.64,4,2.14,2,1.15,4.93-3.62,3,3.46,3.13L208,59.69l2.64,4,4.76.66L215.09,62l1.15-4.27.33-4.61,1.31-2.3,6.41-2.63,3.13,1.15,3.29,5.26,3.94-.49,3.62-2.47-1.48-3,1.48-5.09,3.29-6.42,1.81-1.64Z"/></g></g></svg>