<svg xmlns="http://www.w3.org/2000/svg" viewBox="0 0 86.66 99.32"><defs><style>.cls-1{fill:#fdfdfd;}</style></defs><g id="Camada_2" data-name="Camada 2"><g id="Base"><path id="AP" class="cls-1" d="M77.45,41.11l1.48,3-2.47,1.15-1.31-2.14ZM50.81,99l-2.63.33-5.43-2-.82-3.62-2-.16V90L38,88.3l.16-2.79-3.62-3.78-1.64.16L30.75,74l-1.48-2.3.33-5.27-5.43-4.6-1-3.29-3.46-5.26L16,53.77,12.66,52l-1.48-2.63-3.78-2L1,47.19,0,41l1.32-2.47L.16,35l1.16,2.3H3.45l2,2,3,1.15L14.8,39.3l2.47-2.47,4.93,2,3.45-1.65,1.81,1.65,4.77,1.31L37,36.51l5.92-12V22.86l2.3-2,5.1-9.2L53,8.22l2.79-1.64,2-6.58,2.14,1.48,3,3.45,2.63,4.94-.33,8.88,2.14,7.72,1.31,2.64L71.86,39l3.62,6.74,2.13,1,3.62-.33,4.94,2.8.49,4.11L85.51,59l-5.76,4.11-3.45,4-2.63,4.77-3.13,3.62-2.46.33-2.47,3.12L64,79.09l-2.8,3.13L59,86.82l-4.44,4.94-.33,4.77Z"/></g></g></svg>