<svg xmlns="http://www.w3.org/2000/svg" viewBox="0 0 161.81 178.09"><defs><style>.cls-1{fill:#fdfdfd;}</style></defs><g id="Camada_2" data-name="Camada 2"><g id="Base"><path id="BA" class="cls-1" d="M147.17,14.31,148,16l3.46,1.81-.5,3.62,1,2.63,3.45,4.27-1,5.59.16,4.61-2.63,1.31-4.11-.49L147,41.93l4.77,6.91-.5,2,6.09,3.45,3.12-.65,1.32-.33-4.28,9.86-7.07,10.69L145,79.75l-2.63-4.44-3.78-1.81-.49,6.09-5.59,8.71,1.81,4.28-1,5.1,1.81,1-1.32,3.79-1.31,8.38.82,2.63.33,7.57,1.48,8.88,1,2.3-3.29,10.85-2.8,13.49-.16,4.11,1.15,6.08-2.14,2.8L125,172.17l-3.12,5.92-9.54-6.58.49-3-5.26-4.77-1.64-7.89,1.81-4.77,3.12.16.66-5.75,2.14-.33,1.48-2.8,2.13-1.81,1.32-3.28-6.41-5.43-7.73-2-5.76-.5-3,1.65-3.12-1.15-.49-4.11-7.9-7.08L79.09,120l-9.53-4.44-5.92-4.77L59.36,110l-4.93,3-6.58-2.3-.33-2L49,104.75l-3.45-1.15-6.08-.5-3.95,1.65-4.77,3.12-.82,1.65L24,111.82,19.9,115.6h-2l-3.28,3.78-3.29-.33L9.7,114.28l2-3.12-1-2.8.82-3.12L7.89,102,6.08,98.5l-.82-6.41,1.48-4.44,1.81-1L6.91,84.19l.33-3,1.64-1.48-3-3.12,1.32-5.26-2.8-1.48-.33-5.27L8.72,61,5.59,57.39l2.3-.82L6.74,53.94l-4.11-.66L0,50.48l3.29-6.41,2.63-2L4.6,40l4-3.29,4.93-2.8.83-1.64H17.1L19.4,35,22,40.29l4.77,2.14,3.79-.33,5.09-4.44,2.63-.83,3,.83,2.14-.83L47,33.05l2.63-3.62,1.15-3-.49-4.6-1.81-5.76,2.14.33,1.64-2.13,2.8-.5,1.31,2,5.92-.33,3.46,2.79,6.41-1,2.63-3.13,3.29-.49,1.64-1.48,4.11.33L85.51,11v-3l3.29-.33,3.12-4.44,3.62-.17,4.93,2.8.33,4.77,2.8,1.64,1.48,4.77,5.26-2.47,1-4.43H114l4.11-2.47-.17-2.3,3.62-1,.16-2.3L126.62,0l3.29,2.63,6.24,1.65L142.4,7.4l3.46,3.12Z"/></g></g></svg>