<svg xmlns="http://www.w3.org/2000/svg" viewBox="0 0 74.33 89.62"><defs><style>.cls-1{fill:#fdfdfd;}</style></defs><g id="Camada_2" data-name="Camada 2"><g id="Base"><path id="CE" class="cls-1" d="M74.33,36l-5.27,1.81-3.28,2.47-3.29,6.9-2.31,2.63L58.7,54.59l-3,3.46-2.3-.33-3,4.11,1.15,1.64-3.94,10.2,1.48,3.78,2.46,2.47-3,5.59-3.12,1.64L43.9,89.62l-4.93-3-1.64-2.3-5.59-3.29-3.46-.33-3.78,1-8.39-.33-.82-3.13,3-7.23-.82-1.15L13,68.24,11.67,62,9.87,56.9,9,46.7l-2.13-2v-2.8L4.77,37.49l-1-6.74L6.58,27,4,22,3,17.92,0,11.35.49,9.21,3.62,3.78l-.5-2.46L9,1.15,17.1,0l8.72.82L30.42,4l6.58,3,4.93,3.29,2.14.82,5.1,4.44,3.78.82,1.15,2.3,2.47,2,3.94,4.94L65,28.28l3,3.79,4.94,1.48Z"/></g></g></svg>