<svg xmlns="http://www.w3.org/2000/svg" viewBox="0 0 38.81 63.31"><defs><style>.cls-1{fill:#fdfdfd;}</style></defs><g id="Camada_2" data-name="Camada 2"><g id="Base"><path id="ES" class="cls-1" d="M29.27,1.32l9.54,6.57-1,3.62-.16,7.07.49,9.7L36,32.72l-3.45,2L29.93,40l-.33,2.79-1.81.83-1,5.09L23,53.44l-3.45,2-1.48,4.44L16,63.31l-1.64-1.15-3.46.33L5.1,61.17,2.47,59.69l.16-4.11L0,53.94,2.47,43.08l6.41-.33L10,38.15l2.14-1.48.33-3.29,3.61-4.11.33-5.59-2-2.63,2.3-6.42-2-1,.49-3.78L12.83,7.24l3.61-3.46.5-2.46L25.65,0Z"/></g></g></svg>