<svg xmlns="http://www.w3.org/2000/svg" viewBox="0 0 129.58 128.43"><defs><style>.cls-1{fill:#fdfdfd;}</style></defs><g id="Camada_2" data-name="Camada 2"><g id="Base"><path id="GO" class="cls-1" d="M123.82,5.59l3,3.13-1.64,1.48-.33,3,1.64,2.46-1.81,1-1.48,4.44.83,6.41,1.81,3.45,3.61,3.29-.82,3.13,1,2.79-2,3.13-1.31,1.31-3.62-.49-3.62-3.62-1.31,1.81.49,4.11-3.78-.49-2.14.66-.82,6.9,1.15,3.13.49,5.09-8,3.13-1-1,.82-7.23-2-1.65-13.49-.33L87.81,61l1.64,3.78h15.63l-.5,3.62-2.3,4.77,3.45,3.12,2,5.26-3.29,4L101,90.77l4.27,1.81.49,2.14-1.64,3.45,1.31,4-4.93,2.79-1.64,2.14-4.28,2.3-6.41-1.81H78.27l-2.46-.49-3.13,1.48-4.11,4.11-2.3-2.47L61,112.64l-3.46-.33-5.92,2-3.29,4.28-.32,3-2.14.16-3.46,3.46-2.13,3.29L37.66,125l-3.13-.49-2.14-1.81L28.28,122l-7.23-3.45-2.14-1.81-3-.66-2.47-2-6.74-.49,1.48-4.28-4.93-3,.16-5.1L0,93.4l.82-5.75,2.8-4.44L5.1,79.09l2.63-1.31,3-3.78-.33-4.61,2.47-2.79,3.28-1.81L18.42,62l5.42-1.48,3.29-6.08,1-4.77,2.47-2.8,3.45-2,2.63.49,1.15-1.64,2.47-7.07-.5-2,1.32-5.1,1.15-.17V22.2l4.93-8.39.17-4.11,1.48-3.12.66-2.8,3-3.78,1.31,3.12L52.46,5.43l.65,2.63L63,12.5l4.6,1.31,4.94-9.37,1.48-1,4.11,3.62,1,3.95,2,1.64,8.55-.16,9.21,3.12L97.51,12.5l5.1,1.31L108.69,11l5.59-.66,2.31-2.47Z"/></g></g></svg>