<svg xmlns="http://www.w3.org/2000/svg" viewBox="0 0 122.18 163.29"><defs><style>.cls-1{fill:#fdfdfd;}</style></defs><g id="Camada_2" data-name="Camada 2"><g id="Base"><path id="MA" class="cls-1" d="M121.68,28.78l.5,3.45-3.46,4.93-3,3-5.09,1.32-3.46,3.45-1.31,4.44-4.44,5.26.33,2.63,1.81,2.31-1.48,4.93.82,1,1.81,5.75-.5,2.8-4.76,5.75.49,7.4,4,3.46-.5,5.42L101,99.81l-7.73,1.32-3.95-2.47L82.71,100l-4.27,5.59-2.8,1L72,109.68l-4.44,2.14L61,113.63l-3.46,2.3L56.07,121l-.33,3.45L53,129.58l-.49,2.79-3,3.46-1,2.46L50,145.53,51.63,147l-1,10.52-1.48,3v2.8l-2.47-2-4.6-.82L40,157.7l-.33-2.47-3.29-2.3,2.47-3.46L35,147l-1.65-4.28-4.11-3.29,3-2.79L31.9,135l1.65-4.93,2-1,3.78-.16.33-7.89L38,119.88,32.89,121l-2.63,1.48-4.77-6.75-3.62-3.94-.33-3-2.14-2.14,2.14-2.63,1.15-8.39L24,90.28,23,88l.33-4.11L22,81.56l-.49-4.44L13,72.52,10.2,73,6.91,71.37,3.62,72,.16,74.65,0,74.49,16.44,61.17l2.63.33,4.77-5.92,1.65-3.45,3.94-4.28.66-4.77L31.57,40l2.3-1.32,2.64-3.94V28.28l4.27-3.94-.49-2.63,3-3.95,1-3V10.36l1.48-8.55,1-.49,5.59,1L53.11,0l4.28,5.26,2.14.66.16,4.6L63,6.25l3.78.33L71,12l3.29.66.49,5.26,2.3,2.8-2.47,2-2.13,5.1-1.15,5.1,1.15,1,3.94-2.79,1.81-7.24,4.28-1.48L83,24l-2,3.12,7.07-2.79L93.4,25l-.49-3.61,2.79.16,10.69,3.62,3.45,3,4.44.66.5,1,4.93.5Z"/></g></g></svg>