<svg xmlns="http://www.w3.org/2000/svg" viewBox="0 0 197.16 161.15"><defs><style>.cls-1{fill:#fdfdfd;}</style></defs><g id="Camada_2" data-name="Camada 2"><g id="Base"><path id="MG" class="cls-1" d="M190.91,68.41l-3.61-1.32-8.72,1.32-.49,2.46-3.62,3.46L176.94,77l-.5,3.78,2,1-2.31,6.41,2,2.63-.33,5.59-3.62,4.11-.33,3.29-2.14,1.48-1.15,4.6-6.41.33L161.64,121l-3.94,4.27-4.94,11.84,1.65,1.48-13.32,6.09-5.43-.5-2.14,1H128.1l-5.76,2.14-2.14,1.48-3.94.16-6.91,2.8-3.78,1.15-6.08,3.62-1.32-1-4.44,1-.16,2.63-2.47,1.31-4.61.66-3.78-.33-1.15-6.58-4.27-2.13-1-2.14,1.48-6.09-1-3.29L80.08,135l-.33-1.15-5.42-2-3.13-.16-4.11-8.56,2-4.44-.65-2.46-2.47-2,1-4.11-3.62-3.12H59.86l-3.62-1.15-.82,2.3-12,.33-4.93.82-5.26,2.47-2.63-2.47-.17-2.63-4.27-1.81H20.06l-8.06-1-2-1.8-3.45,2.63-3.95,1.48-2.14,2L0,101.79l1-5.43,2.13-3.29,3.46-3.45,2.14-.17.32-3,3.29-4.27,5.92-2,3.46.32L27,78.11l2.3,2.46,4.11-4.11L36.51,75l2.46.5h9.87l6.41,1.81L59.53,75l1.64-2.13,4.93-2.8-1.31-4,1.64-3.45-.49-2.14L61.66,58.7l3.46-5.26,3.29-3.94-2-5.27L63,41.11l2.3-4.77.5-3.62,8-3.12-.49-5.1-1.15-3.12L73,14.47l2.14-.66,3.78.5-.49-4.11,1.31-1.81L83.37,12l3.62.5,1.31-1.32L90,16l3.29.33,3.29-3.78h2l4.11-3.78,5.92-2.31.82-1.64,4.77-3.13L118.07,0l6.08.49,3.45,1.15-1.48,4,.33,2L133,9.87l4.93-3,4.28.82,5.92,4.77,9.54,4.44,5.09-1.32,7.9,7.07.49,4.11L174.3,28l3-1.64,5.76.49,7.73,2,6.41,5.42-1.31,3.29-2.14,1.81-1.48,2.8-2.14.33-.66,5.75L186.31,48l-1.81,4.76,1.64,7.9,5.27,4.77Z"/></g></g></svg>