<svg xmlns="http://www.w3.org/2000/svg" viewBox="0 0 126.95 129.58"><defs><style>.cls-1{fill:#fdfdfd;}</style></defs><g id="Camada_2" data-name="Camada 2"><g id="Base"><path id="MS" class="cls-1" d="M90.11,15.29,90,20.39l4.93,3L93.4,27.63l6.74.49,2.47,2,3,.66,2.14,1.81L114.94,36l4.11.66,2.14,1.81,3.13.49L127,42.42l-1,5.43.49,6.41L124,58.05l-3.46,1.15-5.09,6.25-.17,3.45-4.44,5.59.33,3.29-4.28,4L108,83.86l-4.61,4.94-1.31,3.29-8.23,6.08-2.3.82L88,103.6l-5.42,2.46-2.14,1.65-.66,3.61-2,4.28-3.45,1.81L72.19,125,72,127.6l-3,2-6.57-4.77-5.43,3-4.93,1.15L48,127.27l-.17-3.78-1.48-2.63.33-4.27-2.63-10.86.66-3.29-2.14-2-.16-2.3L40,96l-5.43-.49-3.94-4-2.8,2.3L22.53,95.7l-6.09-1.81-2.79.33L5.43,92.91,3,90.77,4.6,84.19l-1-3.29,1.48-3L5.43,72l-1.15-3,.82-3L3.29,64.62,2.63,61.5,0,55.42,5.1,52,.49,47.36l7.07-14.8-1-.66,4.11-13.48L7.56,12.17V10l4.61,3.13L18.25,11l2.47-2.47,4-6.25,7.56-.49L37,0l4.77,3,2.79.49,1.65,2.31,6.41,3.45,4.93-.66,3.62-2.47,2.63-.16L67.09,9l3.62-1,6.58-6.74,1.64-.17L77.78,8.39l-2,.82L73.67,13l4.44,2.14L85.67,15Z"/></g></g></svg>