<svg xmlns="http://www.w3.org/2000/svg" viewBox="0 0 200.94 193.71"><defs><style>.cls-1{fill:#fdfdfd;}</style></defs><g id="Camada_2" data-name="Camada 2"><g id="Base"><path id="MT" class="cls-1" d="M200.94,44.89l-3,5.59-.49,3.29-3.12,6.09-.17,6.9-2.3,8.06,1.64,1.48-1,2.14,1,4.77-.33,3.94,1,4.28-.66,2.14,1,4.6,2,.82L195,102.12l-.16,4.11-4.93,8.38v7.24l-1.15.16-1.32,5.1.49,2-2.46,7.07-1.15,1.65-2.64-.49-3.45,2-2.47,2.79-1,4.77-3.29,6.09-5.43,1.48-2.3,2.79L160.49,159l-2.46,2.8.32,4.6-3,3.78-2.63,1.32-1.48,4.11-2.79,4.44-.82,5.76,3.45,7.89-4.44-.33-7.57.16-4.44-2.13,2.14-3.79,2-.82,1.15-7.23-1.65.16-6.58,6.74-3.61,1-3.29-3.12-2.63.16L118.56,187l-4.93.65-6.42-3.45-1.64-2.3-2.8-.49-4.76-3-4.77,1.8-7.57.5L81.73,187l-2.47,2.46-6.09,2.14-4.6-3.12-1.64-3.95-3-.16-4.28-3.29-2.63-1.32-1.64-7.23v-4.12l2-2.46.33-4.11-3.46.66-28.11-1-1-1-1-13.15-5.1-6.58,4.44-.82-.16-8.55-3.29-9.54,1.48-2.47-1.31-2.79-4.61-2.8,5.59-4,1-3.12L25,101.13l2-.66,4.6-9.7-1.15-4.93-1.64-3.62-1.48-.33-.83-4.44L29.93,72l-1.32-3.61-8.06-2.63L2.47,65.61l-1-3.78,1-5.92L.49,50l1.65-8.72L0,35.68l2.14-7.4L0,25.65l54.1-.49,1.32-1L58.21,14,57.06,8.72l2.47-3.13.33-3.78L61.34,0l2.79,3.45,3.45,9.38L70.05,16l-.66,3.95L71,25.49l5.09,3.45,3.46,1.81.49,2.8,4.11,1.15,6.74,3.45,24.18,1.64,67.09,4.12Z"/></g></g></svg>