<svg xmlns="http://www.w3.org/2000/svg" viewBox="0 0 227.58 220.35"><defs><style>.cls-1{fill:#fdfdfd;}</style></defs><g id="Camada_2" data-name="Camada 2"><g id="Base"><path id="PA" class="cls-1" d="M143.88,55.91l-.33,2.3-4.6,2V58.54l2.63-2.3Zm-7.07-.49,1.32,1.48L136,63.47l-9,7.73-3-.49,1.31-3.13,2.8-2,.82-5.1,2.47-3.61,3.94-2.14ZM156.87,48l7.73,1.8,4.11-.16,1.65-1.32,7.07.17.66.82,8.22.82,1,2-1.65,2.13L184.5,61l-1.81,3.45-3,2.14L178.91,71l-6.74,3.29-2.63.32-2.31-1-2.63,3-3,1.15-3.94-2-2,1.15-4.44,1-3-.65-.16-2-2.8-2.63-1.15-3.29.5-2.79-.33-4.94.33-4.44,2.3-6.9,4.93-3Zm-14.14,3-2.46-2.47,1.48-2.8,3.28-1,2.14,3Zm24.83-6.58,2.14.66-1.32,2.63-4.93.49,1.65-3.62Zm-.66-4.11-3,1.81-2.47,3.28-3.13,1.16-1.48-1.48-3.61.32-1.32-3.61,4.61-.17,1.31-1.31H161l3.78-1.48Zm-14.47-3.95.33,4.28-2.63.16.66-4.6Zm5.43-1.15-.16,1.32-4.11,2.79.65-4.11Zm-83.7-33,1.15,3.45L74,8.06l1,6.25,6.42.16,3.78,2,1.48,2.63L90,20.88l3.78-.49,3.45,5.26,1,3.29,5.43,4.61-.33,5.26,1.48,2.3L106.88,49l1.65-.16,3.62,3.78-.17,2.8,2,1.64v3.62l2,.16.82,3.62,5.43,2,2.63-.33-.17,3L122,70.38l-3.12-1L113,72.52l2.63.82,2.63-1,2.14,2.14,3.45-.66,5.1-3.45,6.91-3L140.27,64l.65-2.14h3l-1.48,3.62,1.65,2V71l2.3,3,2.14,5.09,1.81.5L158,77.78l5.26,1.64,4.6-2.63,1.65,2.3-1.32,5.1,2.14.33L174,76.79l2.79-3,2.63.5,3.13-4.28,1.81,3.45,1-5.26,2.47.66,1.15-3.45,2.47-4-.33-2.14,3.62-.66,3.94-1.8,4.61,1.64,3.28-2.3,6.91,4.11,7.07.66.33,2.63,3,.16,1.32,2,2.46,1.15-1,.49L225.12,76v4.44l-1,3-3,3.95.49,2.63-4.27,3.94v6.42l-2.63,3.94-2.31,1.32L211,108.69l-.65,4.77-3.95,4.28-1.64,3.45L200,127.11l-2.63-.33L180.88,140.1l.17.17,3,1.15,2.79-.5,4.61,4.61-2.8,1.48,1.15,2.79-2,1.65,1,2-2.64,1.32L185,158l-3,3.28-.33,2.31-5.75,2-3.29,2.14.16,5.92-3.28,4.77v2.63l3.45,2.46-.33,4.94-2,5.75-1.32,1-3.45,7.07-3.13,1.48L157.53,211l-1,4.28-2.14,5.1-18.75-1-67.09-4.11L44.4,213.61l-6.74-3.46L33.55,209l-.5-2.79L29.6,204.4l-5.1-3.46-1.64-5.59.65-3.94-2.46-3.13-3.45-9.37-2.8-3.45-1-3.13L10.52,169l-1.64-3.78L12,160.49,39.14,102l6.57-14.14-.32-2.14-2-1.81-2.14,1-2-.82-.16-2.47L35,79.92l-1.65-2.14L23.19,73.67l-3-2.63-4.44-2.47-5.92-5.1-.66-3L6.41,59.2,4,56.9l.16-3.79L2,51.3l-.16-9.7L0,22.36,2.14,24.5l3-1.64,3,.33V20.06l3.62-2.79,5.09,1.48,1.48-2.14,2.63-1.15h3.95l4-4.61,4.27-1,1.65,1.81,3.78.82,3.12-1,5.1.17,5.43,1.48,1.81-.83V9.54L51.47,6.25l1.15-4.93,4.77,2,5.75-.66L65,1.15,69.56,0l2.79,2.3Z"/></g></g></svg>