<svg xmlns="http://www.w3.org/2000/svg" viewBox="0 0 69.89 40.12"><defs><style>.cls-1{fill:#fdfdfd;}</style></defs><g id="Camada_2" data-name="Camada 2"><g id="Base"><path id="PB" class="cls-1" d="M66.93,8.39l-.17,2.13,1.65,6.58,1.48,3-.33,6.74L68.08,27l-3-2.47-4-.33-3.78,1.15-1,3.62-5.92,2-1,1H41.11l-2.63,1.81-1,2.8L34.7,39l-2.63,1.15L28.61,38l-.16-3.29-2.47-1,2-3-.65-3.12,3.45-1.32-1-2.14-3.45-2-3.12,1.15-2,2.47L18.42,27l-4,3.45-4,.66L8.88,32.39,7.07,29.76,4.28,30.91,1,28.28l3-5.59L1.48,20.23,0,16.44,4,6.25l4.27,2.3,2.8.17,5.92-4,.65-2.14L26.31,0l1.48,1.64L24.17,5.92,22,11.68l3,.16,2,2.3,3-1.15,4.77.17L36,16.77l2.63-1,1.15-9.38,3.62-1.48.66,2L50,7.73l4.6-.66,5.27,1.48L65.61,9Z"/></g></g></svg>