<svg xmlns="http://www.w3.org/2000/svg" viewBox="0 0 115.93 39.47"><defs><style>.cls-1{fill:#fdfdfd;}</style></defs><g id="Camada_2" data-name="Camada 2"><g id="Base"><path id="PE" class="cls-1" d="M114.28,4.77l1.65,1.31-1.65,3.29,1.48,1.81-2.3,8.06-3.62,10-5.75-1.48-4.28,1.48-1.48-.82-3.78.33L88.8,34.37,84.36,36l-5.1-.49L78.11,37,74,35l-3.78-3.62-3-1.65-4.61.83-7.4,6.08-1.31-3.78-3.46-3.13-6.25-3.12L38,25,34.7,22.36,29.76,24.5l-.16,2.3-3.62,1,.17,2.3L22,32.56H19.4l-1,4.44-5.26,2.47L11.68,34.7l-2.8-1.65-.33-4.77L3.62,25.49,0,25.65l7.89-4.93L13.81,15l.82-4.76L12.5,8.55l.66-2.14L12,2.63,14.63,2,23,2.3l3.78-1,3.46.32,5.59,3.29,1.64,2.31,4.93,3,1.65-2.47,3.12-1.65,3.29,2.64,2.8-1.16,1.81,2.64,1.64-1.32,4-.66,3.94-3.45,2.8-1.15,2-2.47L72.52,0,76,2l1,2.14L73.5,5.43l.66,3.12-2,3,2.46,1,.17,3.29,3.45,2.13,2.63-1.15,2.8-2.46,1-2.8L87.32,9.7H95.7l1-1,5.92-2,1-3.62L107.38,2l3.94.33Z"/></g></g></svg>