<svg xmlns="http://www.w3.org/2000/svg" viewBox="0 0 98.33 144.87"><defs><style>.cls-1{fill:#fdfdfd;}</style></defs><g id="Camada_2" data-name="Camada 2"><g id="Base"><path id="PI" class="cls-1" d="M83.7,4.44,80.57,9.87,80.08,12l3,6.58,1,4.11,2.63,4.94-2.8,3.78,1,6.74L87,42.59v2.8l2.14,2L90,57.55l1.81,5.1,1.31,6.25,4.44,1.64.82,1.16-3,7.23.83,3.12-2.63.66,1.15,3.78-.66,2.14,2.14,1.65-.83,4.77-5.92,5.75-7.89,4.93-3.12,4.44-3.29.33v3l-1.65,1.48-4.11-.33-1.64,1.48-3.29.5-2.63,3.12-6.41,1L52,117.9l-5.92.33-1.31-2-2.8.49-1.64,2.14-2.14-.33L40,124.32l.49,4.6-1.15,3-2.63,3.62-3.62,3.78-2.14.82-3-.82-2.63.82-5.09,4.44-3.79.33-4.77-2.14L9,137.47l-2.3-2.8H4l-3.29-.16v-2.79l1.48-3,1-10.53-1.64-1.48L0,109.52l1-2.47,3-3.45.49-2.8,2.8-5.1.32-3.45L9,87.15l3.46-2.3L19.07,83l4.44-2.14,3.62-3.12,2.8-1L34.2,71.2l6.58-1.31,3.95,2.46L52.46,71l2.46-3.78.5-5.43-4-3.45L51,51l4.76-5.76.5-2.79-1.81-5.76-.82-1,1.48-4.93-1.81-2.3L53,25.82l4.44-5.27,1.31-4.44,3.46-3.45,5.1-1.31,3-3,3.45-4.94L73.18,0l4.27,2.47,4.6.33Z"/></g></g></svg>