<svg xmlns="http://www.w3.org/2000/svg" viewBox="0 0 115.27 80.57"><defs><style>.cls-1{fill:#fdfdfd;}</style></defs><g id="Camada_2" data-name="Camada 2"><g id="Base"><path id="PR" class="cls-1" d="M115.27,53.61l-4.6.33-3.29,3.78L109,59.86l-2.63,7.07-9.54.16-8,4.61-6.42-4.12-12.49,1L66.6,72.35l-4.28-.49-3.78,3.78,1,3.62-2.8,1.31-2-1.48-9-.49-2.79-2.3-5.1-.66-6.25-1.81-5.26.66L22,72l-2.46,1-3-.66-3-6.08-1.32-6.41L6.91,58.05,2.63,60.18l-2.3-1.8L0,56.07l3.12-5.92-.65-1.48L5.1,40.45l1-5.75L4.77,31.08l1.64-1.81,3-2,.17-2.63,2.14-7.57,3.45-1.81,2-4.27.66-3.62L19.9,5.76l5.42-2.47L29.27.66l7.56,1L45.71,0l2.47,1.48L54.76,3l2.79-.66,4.11,2.3,4.12,1,1.8,2.47,6.91-.66,1.81.66,4.6-.66,2.8,2.8,2.47.82,2.13,5.59-.82,2.14,1.81,3.94L88.47,26l4.77,5.1,1.81,4-1.32,6.24,12,.17,3.62,5.42L112.64,48Z"/></g></g></svg>