<svg xmlns="http://www.w3.org/2000/svg" viewBox="0 0 68.9 49"><defs><style>.cls-1{fill:#fdfdfd;}</style></defs><g id="Camada_2" data-name="Camada 2"><g id="Base"><path id="RJ" class="cls-1" d="M68.9,9.37,67.09,14,68.9,22l-.49,1.32L64,25.82l-7.4,2.63L50.65,34.7l1.15,3.12-2.14,3.45L44.07,41l-11.68.82-.82-5.92-3.29,1.48,1.81,3-1,1.81-7.24.65-4.11-2.3-3.62.82-2.14,2L9,41,3.78,43.08,2.47,49,0,46.54l1.32-4.61,3.61-2.14L9,39.47l3.46-3.13-1.32-1.81H4L.66,30.75,7.56,28l4-.16,2.14-1.48,5.75-2.14h5.43l2.14-1,5.42.49,13.32-6.09-1.64-1.48L49,4.28,53,0l2.63,1.64-.16,4.12,2.63,1.48L63.8,8.55l3.46-.33Z"/></g></g></svg>