<svg xmlns="http://www.w3.org/2000/svg" viewBox="0 0 64.13 37.99"><defs><style>.cls-1{fill:#fdfdfd;}</style></defs><g id="Camada_2" data-name="Camada 2"><g id="Base"><path id="RN" class="cls-1" d="M64.13,29.6l-1.31.66-5.76-.5L51.8,28.28l-4.61.66-5.92-.82-.65-2L37,27.63,35.85,37l-2.63,1L31.9,34.37l-4.77-.17-3,1.15-2-2.3-3-.16,2.14-5.76L25,22.86l-1.48-1.65L14.8,23.84,14.14,26,8.22,29.93l-2.79-.17-4.28-2.3L0,25.82l3-4.11,2.3.32,3-3.45L9.7,13.81,12,11.18l3.29-6.9,3.29-2.47L23.84,0l1,1.48,5.1.33L33.55,4.6l7.23.17,5.1-1,7.4,1.32,2.79,1.64,2.8,4.77,3,12.66Z"/></g></g></svg>