<svg xmlns="http://www.w3.org/2000/svg" viewBox="0 0 123.82 101.79"><defs><style>.cls-1{fill:#fdfdfd;}</style></defs><g id="Camada_2" data-name="Camada 2"><g id="Base"><path id="RO" class="cls-1" d="M92.25,13.65l2.14,2.63-2.14,7.4,2.14,5.59L92.74,38l2,5.92-1,5.91,1,3.79,18.08.16,8.06,2.63L122.18,60l-3.46,5.43.83,4.44,1.48.33,1.64,3.61,1.15,4.94-4.6,9.7-2,.66-2.79,5.59-1,3.12-5.59,4-3-2-8.06-1.15-8.22,1-5.1-5.1-.16-2.14-5.59-.32-.49-1L71.7,90l-3.79-3.13-1.48-3.45-4.44,1-3-2.63-3-1.48-3.61-.17-1,1.32-8.55-1.48L41.77,76.3l-4.44-2L36,72.19l-3.12-.33-1.65-4.6-2.46-.5L28.45,63l-2.3-2.3-.83-4.28,1.65-3L25.16,50l-.66-5.92,2.8-4.77-1-4.27L27,32.89l-2.47-3L22,32.72l-3.94-1.48-4.93.5-6.42,2-3.62.49L0,32.72l1.64-1.64,4.12-2,2-2.14V25h7.89l3.45,3,1.81-2,3-.16,4.77-3.46,1.15,2.8h1.81l2.14-3,.66-3.45,1.81-1.16,3.94.5,3.13-1.48h4.6l-.33-4.28,2.63-.49,1.32-2.47V5.76l3.12-.83L57.22,2.8l1-2.8H69.39l3.13,1,3.29,5.42,2.79.17,1.48,3.62,2.3.49.5,2.79,4.27,2,3-3.29Z"/></g></g></svg>