<svg xmlns="http://www.w3.org/2000/svg" viewBox="0 0 102.28 117.9"><defs><style>.cls-1{fill:#fdfdfd;}</style></defs><g id="Camada_2" data-name="Camada 2"><g id="Base"><path id="RR" class="cls-1" d="M100.47,69.89l1.81,19.24H81.89l-1.81,1.64-3.29,6.41-1.48,5.1,1.48,3-3.61,2.47-4,.49-3.29-5.26-3.12-1.15-6.42,2.63-1.31,2.3-.33,4.6-1.15,4.28.33,2.3-4.77-.66-2.63-3.94-5.1-3.46L38,106.72l3.61-3-1.15-4.93-2.14-2-1.64-3.94,1.15-1.48L37,88.8l1.31-5.27-.82-3.45,1.65-1.15-3-10.52-3.13-3.62,1.32-2,.16-4.12-6.08-1.64-2.14-2.47-3.78-1V50.32H14.64l-3.79-.82.83-4.44L7.73,37.82l-.33-5.1.82-2.63L5.92,27.3,2.3,25,0,22.53l1.32-2.3,3.94-.5,4,.66L10.52,24,14,23.35l4.44.16,2.63,1.32,3.29-1,5.09,5.59h3.62L33.87,27l-.82-2.8.82-2.3,3.29-.16,3.13-2.47,3.29,1.48,5.09-1,3-1.81,3.13.17,1-2.8L65.12,13l1.31-3L68.9,9l2.63-2.63-.82-4.77,5.75-.32L78.6,0l4.11,3.12L81.4,13.65l4.27.66L88,15.62l-1,3.29,3.62,4.28L88,27.63l-2.79,1.64.16,4.11L83,39l-.66,6.58,1.48,5.59,3,2v5.27L90,62.65l5.75,6.09Z"/></g></g></svg>