<svg xmlns="http://www.w3.org/2000/svg" viewBox="0 0 139.11 135.66"><defs><style>.cls-1{fill:#fdfdfd;}</style></defs><g id="Camada_2" data-name="Camada 2"><g id="Base"><path id="RS" class="cls-1" d="M139.11,44.07l-5.92,9.87-4.76,13.32-7.24,12-7.56,9-7.24,6.09-5.26,3.29L98,101.29,97.18,96l2.8.33,3.94-1.64L109,89l3-1,1.65-3.78-.33-2.79,3.12-2.14.33-3,3.78-1.81,1.32-1.81,2.63-9.37-6.41.82L114,62.82l-2.8,7.72-1.48.5.16,4.93-1.31,4.11-3.13,1-.65,2.63-4.77,1-1,5.59L95.05,93.4,95.54,97l-1.48,3.12,2.79.5-4.93,8.71-1.64,6.41-2.63,6.42-3.46,4.6-9.86,8.88-3-2L72,122l3.46-2.79,3.29-4.44-2.47-3.13L71,108.36,67.42,100l-5.59-3.45-1.15.65-5.59-4.93L53,88l-4.11-.65L41.11,83l-1.64-3.45-4.28-4.44-4.77,4.77-2.79-.33.65-4.28-4.11-5.59-3-2.14-4.77-5.26-3.12-2.46L9,60,6.58,63.64l-5.26-.17L0,62l4.6-4.44.33-2.79,3.46-1.65L16,44.23l1.81-4.11,3-1.48,2.14-5.26,2-1,4.93-5.75,2.47-4.11,2.8-2.8,3-.66,4.27-4.44,3-.49,2-2,1.48-3.78L51,8.55l7.23-2.47L60,2.8l6.08-2L73.83,0l4.28,1,2.46-1,5.1,2.47,3.46-.33,6.41.66,4.77,3.94,5.42.66,2.63,1.48,4,3.95,2.63,1,3.46,4.11L123,25l1.48.83,10.52,1,4.11,1.32-3.78,3.78L135,36.51l-2.46,5.91,3.78-.49Z"/></g></g></svg>