<svg xmlns="http://www.w3.org/2000/svg" viewBox="0 0 96.03 66.6"><defs><style>.cls-1{fill:#fdfdfd;}</style></defs><g id="Camada_2" data-name="Camada 2"><g id="Base"><path id="SC" class="cls-1" d="M93.57,36.34l.82-5.59,1.64.82ZM92.91,0V3.45l-2.8,3.13,2.47,2.3L91.26,14.8l.83,2.3.16,7.73,1,1.64L91.76,29.6l1.31,7.07L90.93,46.86,86.66,53l-7.24,5.59L73,66.6l-2.79-2.14L66.43,65,68.9,59l.33-4.6L73,50.65,68.9,49.33l-10.52-1-1.48-.82-4.61-7.07-3.45-4.11-2.63-1-4-3.94-2.63-1.48-5.43-.66-4.77-3.95L23,24.67,19.57,25l-5.1-2.46-2.47,1-4.27-1L0,23.35l2.3-5.26-1-3.46,1.8-9.2,3,.65,2.47-1,4.28,2.46,5.26-.65,6.25,1.81,5.09.65,2.8,2.31,9,.49,2,1.48L46,12.33l-1-3.61,3.78-3.79,4.27.5L56.4,1.64l12.5-1,6.41,4.11L83.37.16Z"/></g></g></svg>