<svg xmlns="http://www.w3.org/2000/svg" viewBox="0 0 159.18 105.73"><defs><style>.cls-1{fill:#fdfdfd;}</style></defs><g id="Camada_2" data-name="Camada 2"><g id="Base"><path id="SP" class="cls-1" d="M147.34,49.66l3.29,3.78h7.23l1.32,1.81-3.46,3.13-4.11.32L148,60.84l-1.31,4.61,2.47,2.46-4,.33-2.3,2.47L136.81,74,135,77.12l-5.92-1.48-7.23,4.11-5.59,2.3-6.74,4.12L109,88.3l-7.73,5.27-3.45,1.48L93.4,98.83l-1.15,4.93-2.3,2-2.63-5.59L84,99l-3.62-5.42-12-.17,1.31-6.25-1.81-3.94-4.77-5.1L64,74.82l-1.81-3.95L63,68.74l-2.14-5.6-2.46-.82-2.8-2.79-4.6.65-1.81-.65-6.91.65-1.81-2.46-4.11-1-4.11-2.3-2.8.66-6.57-1.48-2.47-1.48-8.88,1.64L4,52.78,0,55.42l3.62-4.61L5.92,50l8.22-6.09,1.32-3.28,4.6-4.94-1.15-2.13,4.28-3.95-.33-3.29,4.44-5.59.16-3.45L32.56,11,36,9.87l2.47-3.79,2.14-2,3.94-1.48L48,0l2,1.81,8.06,1h6.08l4.28,1.8.16,2.64L71.2,9.7l5.26-2.46,4.94-.83,12-.33.82-2.3,3.62,1.15h3.45l3.62,3.13-1,4.11,2.46,2,.66,2.47-2,4.44,4.11,8.55,3.12.16,5.43,2,.33,1.15-3.29,5.59,1,3.29-1.48,6.08,1,2.14,4.28,2.14,1.15,6.57,3.78.33,4.6-.65,2.47-1.32.17-2.63,4.43-1,1.32,1,6.08-3.62Z"/></g></g></svg>