<svg xmlns="http://www.w3.org/2000/svg" viewBox="0 0 87.97 146.51"><defs><style>.cls-1{fill:#fdfdfd;}</style></defs><g id="Camada_2" data-name="Camada 2"><g id="Base"><path id="TO" class="cls-1" d="M84.69,91.92l3.28.17-.82,1.64-4.93,2.8-4,3.28L79.59,102l-2.63,2-3.29,6.42,2.63,2.79,4.11.66,1.15,2.63-2.3.82,3.12,3.62-4.6,3.62.33,5.26,2.79,1.48-1.31,5.26-7.24,2.31-2.3,2.46-5.59.66-6.08,2.8-5.1-1.32,1.31,3.12-9.21-3.12-8.55.16-2-1.64-1-3.95-4.11-3.61-1.48,1-4.93,9.38-4.6-1.32L8.88,139l-.66-2.63L9.54,134l-1.32-3.13-3,3.78-.66,2.8-2-.82-1-4.61.66-2.13-1-4.28.32-3.95-1-4.76,1-2.14L0,113.3l2.3-8.06.17-6.91,3.12-6.08L6.08,89l3-5.59,2.14-5.1,1-4.27,5.26-7.24,3.12-1.48L24,58.21l1.31-1,2-5.75.33-4.93-3.46-2.47V41.44l3.29-4.77-.16-5.92,3.29-2.14,5.75-2,.33-2.3,3-3.29,1.15-3.29,2.63-1.32-1-2,2-1.64L43.25,10,46,8.55,41.44,4l-2.8.49-3-1.15L39.14.66,42.43,0l3.28,1.64,2.8-.49,8.55,4.61.49,4.44,1.32,2.3-.33,4.11,1,2.3-1.32,5.43-1.15,8.38-2.14,2.63,2.14,2.14.33,3L61,44.4l4.77,6.74,2.63-1.48,5.09-1.15,1.65,1.15-.33,7.89L71,57.72l-2,1-1.64,4.94.33,1.64-3,2.8,4.11,3.29,1.64,4.27,3.79,2.47-2.47,3.45,3.29,2.3.33,2.47,2.13,2.8,4.61.82Z"/></g></g></svg>