<svg xmlns="http://www.w3.org/2000/svg" viewBox="0 0 130.53 73.23"><defs><style>.cls-1{fill:none;stroke:#fcfcfc;stroke-miterlimit:10;stroke-width:0.75px;}</style></defs><g id="Camada_2" data-name="Camada 2"><g id="Lineart"><path id="AC" class="cls-1" d="M126.69,49.24l3.12,1.48L120.44,58H118l-4.6,3.28-2.3,3.62L108.6,64l-4.27.66L101.53,69l-3.12,2-5.76,1.81L91.83,70,81.47,69l-5.76.5-4.11-.83-6.9,2.8L61.41,69l-2,1.32V49.57l.83-7.4-4.94,3.95-2.46,2.79-3.29,2.14-3.45,1.32H32l.66-2.14-4.11-7.07-7.4-1.48H13.89l4.6-5.92L18.16,34l-3.45-4.77L11.58,27l-.33-2.3L8.46,23.1,6,16.68l-2-1,1.15-3.13L.73,9,.4,5.17,5.17,4,3.53.73,23.75,9.12,64.2,19.31l10,5.26Z"/></g></g></svg>