<svg xmlns="http://www.w3.org/2000/svg" viewBox="0 0 55.63 30.88"><defs><style>.cls-1{fill:none;stroke:#fcfcfc;stroke-miterlimit:10;stroke-width:0.75px;}</style></defs><g id="Camada_2" data-name="Camada 2"><g id="Lineart"><path id="AL" class="cls-1" d="M55.06,1.87,52.27,6.8,49.14,9.93l-3.78,5.43-2.79,1.15-.5,2.13-2.79,3.79-4.44,4.11-2,3.61-1-1.48-6.42-3.61-2.13-3.62L18.39,19.3l-1.31-1.64-3.95-1-8.39-4-3.45-1.8L.47,9.27l7.4-6.08,4.6-.83,3,1.65,3.79,3.62,4.11,2,1.15-1.48,5.09.49L34,7l5.76-5.59,3.78-.33L45,1.87,49.31.39Z"/></g></g></svg>