<svg xmlns="http://www.w3.org/2000/svg" viewBox="0 0 308.47 215"><defs><style>.cls-1{fill:none;stroke:#fcfcfc;stroke-miterlimit:10;stroke-width:0.75px;}</style></defs><g id="Camada_2" data-name="Camada 2"><g id="Lineart"><path id="AM" class="cls-1" d="M264.18,36l.16,9.7,2.14,1.81-.16,3.78,2.46,2.3,2.8,1.32.66,3,5.92,5.1,4.44,2.46,3,2.64,10.19,4.11,1.65,2.13,4.11,1.65.16,2.47,2,.82,2.13-1,2,1.81.32,2.14-6.57,14.14-27.13,58.54-3.13,4.77,1.65,3.78,3.28,3.29,1,3.12-1.48,1.81-.33,3.78-2.46,3.13,1.15,5.26-2.8,10.2-1.31,1-54.1.5L213.7,194l-3,3.28-4.28-2-.49-2.79-2.3-.5-1.48-3.62-2.8-.16-3.29-5.43-3.12-1H181.8l-1,2.79-2.63,2.14-3.13.82v3.62l-1.31,2.47-2.63.49.33,4.28h-4.61l-3.12,1.48-4-.5L158,200.57l-.66,3.46-2.13,3h-1.81l-1.15-2.8-4.77,3.45-3,.17-1.81,2-3.45-3h-7.9v2l-2,2.14-4.11,2-1.64,1.64L71.13,189.88l-10-5.26L20.65,174.43.42,166l.66-3.78,1.48-1.81,5.92-4.11,2-.17,1.81-2.3-1.81-6.41L12.26,144l2.3-3.13.5-4.27L16.54,133l-.5-2.14,4.61-1.31L31,121.48l3.12-1.81L41,118.52l2.63.16,4.93-1.48,2,.33,3.13-4.11,3.45.66,3-1,4,3.62h3l1.48-2.47,5.26-28.45,4.44-25-.82-3.12-3.13-4.77-.33-4.28L68.5,45.34l-2.14-2.46.49-13.16,3.46-.33,6.9-2.3,1.65,1.64L82,27.58l.66-3-2.47-3L74.75,21l-4.44.33L70.14,9.82l4.94-1.15,4.11.83h20.88L98.43,7.19l2.63-1.64,2,3.62,3.62-1.32,3.45-4.27,4.11-1,4.44,7.23.66,3-.16,6.42,3.61-.82,8.39,7.56,5.26,1,6.74-4.44,3.62,1.8-1.15,2.64,2.47.82L150.22,24l2.47-.83.82-3.12,2-.16,3.28-2.31,2,.33,5.1-4.27,2.46.82,3.62-3.13.66-4.76,1-1.16,4.28-.49,2.47-2,3.61-1,.5-1.48,3.78,1,2.14,2.46,6.08,1.65-.16,4.11-1.32,2,3.13,3.62,3,10.52-1.65,1.16.82,3.45-1.31,5.26.82,2.63-1.15,1.48,1.64,4,2.14,2,1.15,4.94-3.62,3,3.46,3.13,5.1,3.45,2.63,4,4.76.66-.32-2.31,1.15-4.27.33-4.61,1.31-2.3,6.41-2.63,3.13,1.15L231.13,55l3.94-.49,3.62-2.47-1.48-2.95,1.48-5.1L242,37.61,243.79,36Z"/></g></g></svg>