<svg xmlns="http://www.w3.org/2000/svg" viewBox="0 0 87.43 100.31"><defs><style>.cls-1{fill:none;stroke:#fcfcfc;stroke-miterlimit:10;stroke-width:0.75px;}</style></defs><g id="Camada_2" data-name="Camada 2"><g id="Lineart"><path id="AP" class="cls-1" d="M77.84,41.71l1.48,3-2.47,1.15-1.31-2.14ZM51.2,99.59l-2.63.33-5.43-2-.82-3.62-2-.16V90.55l-2-1.64.16-2.8-3.62-3.78-1.64.16L31.14,74.6l-1.48-2.3L30,67l-5.43-4.61-1-3.29-3.46-5.26-3.78.49-3.29-1.81-1.48-2.63L7.79,48,1.38,47.8l-1-6.25,1.32-2.47L.55,35.63l1.16,2.3H3.84l2,2,3,1.15,6.41-1.15,2.47-2.46,4.93,2L26,37.77l1.81,1.64,4.77,1.32,4.77-3.62,5.92-12V23.46l2.3-2,5.1-9.21,2.63-3.46,2.79-1.64,2-6.58,2.14,1.48,3,3.46,2.63,4.93-.33,8.88,2.14,7.73L69,29.71l3.29,9.86,3.62,6.75,2.13,1L81.62,47l4.94,2.8.49,4.11L85.9,59.64l-5.76,4.11-3.45,3.94-2.63,4.77-3.13,3.62-2.46.33L66,79.53l-1.64.17-2.8,3.12-2.14,4.61L55,92.36l-.33,4.77Z"/></g></g></svg>