<svg xmlns="http://www.w3.org/2000/svg" viewBox="0 0 162.91 179.07"><defs><style>.cls-1{fill:none;stroke:#fcfcfc;stroke-miterlimit:10;stroke-width:0.75px;}</style></defs><g id="Camada_2" data-name="Camada 2"><g id="Lineart"><path id="BA" class="cls-1" d="M147.63,14.74l.82,1.64,3.45,1.81-.49,3.62,1,2.63,3.45,4.28-1,5.59.17,4.6-2.63,1.32-4.12-.5-.82,2.64,4.77,6.9-.49,2,6.08,3.45L161,54l1.31-.33L158,63.58l-7.07,10.69-5.43,5.92-2.63-4.44-3.78-1.81-.5,6.08L133,88.74,134.8,93l-1,5.1,1.81,1-1.31,3.78L133,111.27l.82,2.63.33,7.56,1.48,8.88,1,2.3-3.29,10.86L130.53,157l-.17,4.11,1.15,6.08-2.14,2.8-3.94,2.63-3.13,5.92-9.53-6.58.49-3L108,164.21l-1.65-7.89,1.81-4.77,3.13.17.65-5.76,2.14-.33,1.48-2.79L117.7,141l1.31-3.29-6.41-5.43-7.73-2-5.75-.49-3,1.64L93,130.34l-.49-4.11-7.89-7.07-5.1,1.31L70,116l-5.92-4.76-4.27-.83-4.94,3-6.57-2.3-.33-2,1.48-3.95L46,104l-6.08-.49-4,1.64-4.77,3.13L30.38,110l-5.92,2.3L20.35,116h-2l-3.29,3.79-3.29-.33-1.64-4.77,2-3.13-1-2.79.83-3.13-3.62-3.28L6.54,98.93l-.82-6.41L7.2,88.08l1.81-1L7.36,84.63l.33-3,1.64-1.48-3-3.13L7.69,71.8l-2.8-1.48-.32-5.26,4.6-3.62L6.05,57.82,8.35,57,7.2,54.37l-4.11-.66L.45,50.92,3.74,44.5l2.63-2L5.06,40.39,9,37.1l4.93-2.79.82-1.65h2.8l2.3,2.8,2.63,5.26,4.77,2.14L31,42.53l5.1-4.44,2.63-.82,3,.82,2.14-.82,3.61-3.78,2.63-3.62,1.16-3-.5-4.61L49,16.55l2.14.33,1.65-2.14,2.79-.49,1.32,2,5.92-.33,3.45,2.8,6.41-1,2.63-3.12,3.29-.5,1.65-1.48,4.11.33L86,11.45v-3l3.29-.33,3.13-4.44L96,3.56l4.94,2.79.33,4.77,2.79,1.65,1.48,4.77,5.26-2.47,1-4.44h2.63l4.11-2.47-.16-2.3,3.61-1,.17-2.3L127.07.43l3.29,2.63,6.25,1.65,6.25,3.12L146.31,11Z"/></g></g></svg>