<svg xmlns="http://www.w3.org/2000/svg" viewBox="0 0 75.28 90.5"><defs><style>.cls-1{fill:none;stroke:#fcfcfc;stroke-miterlimit:10;stroke-width:0.75px;}</style></defs><g id="Camada_2" data-name="Camada 2"><g id="Lineart"><path id="CE" class="cls-1" d="M74.72,36.39,69.46,38.2l-3.29,2.46-3.29,6.91-2.3,2.63L59.1,55l-3,3.45-2.3-.32-3,4.11L52,63.85l-4,10.2,1.48,3.78L52,80.29l-3,5.6-3.13,1.64L44.3,90l-4.93-3-1.65-2.31-5.59-3.28-3.45-.33-3.79,1-8.38-.33-.82-3.12,3-7.24-.83-1.15-4.44-1.64-1.31-6.25-1.81-5.1L9.44,47.08l-2.14-2V42.31L5.16,37.87l-1-6.74L7,27.35,4.34,22.41l-1-4.11-3-6.58.5-2.13L4,4.16,3.52,1.69l5.92-.16L17.5.38l8.71.82,4.6,3.12,6.58,3,4.94,3.29,2.13.82,5.1,4.44,3.78.83L54.49,19l2.47,2,3.95,4.94,4.44,2.79,3,3.78,4.93,1.48Z"/></g></g></svg>