<svg xmlns="http://www.w3.org/2000/svg" viewBox="0 0 39.66 64.23"><defs><style>.cls-1{fill:none;stroke:#fcfcfc;stroke-miterlimit:10;stroke-width:0.75px;}</style></defs><g id="Camada_2" data-name="Camada 2"><g id="Lineart"><path id="ES" class="cls-1" d="M29.69,1.7l9.54,6.58-1,3.62L38.08,19l.49,9.7-2.13,4.44-3.46,2-2.63,5.26L30,43.14,28.21,44l-1,5.1-3.78,4.77L20,55.8l-1.48,4.44-2.13,3.45-1.65-1.15-3.45.33L5.52,61.56,2.89,60.08,3.06,56,.42,54.32,2.89,43.47l6.41-.33,1.16-4.61,2.13-1.48.33-3.28,3.62-4.11.33-5.6-2-2.63L17.2,15l-2-1,.5-3.78L13.25,7.62l3.62-3.45.49-2.47L26.08.39Z"/></g></g></svg>