<svg xmlns="http://www.w3.org/2000/svg" viewBox="0 0 130.38 129.81"><defs><style>.cls-1{fill:none;stroke:#fcfcfc;stroke-miterlimit:10;stroke-width:0.75px;}</style></defs><g id="Camada_2" data-name="Camada 2"><g id="Lineart"><path id="GO" class="cls-1" d="M124.21,6.32l3,3.13-1.65,1.48-.33,3,1.65,2.47-1.81,1-1.48,4.44.82,6.41,1.81,3.46,3.62,3.29L129,38.06l1,2.8L128,44l-1.32,1.32-3.61-.5-3.62-3.61L118.12,43l.5,4.12-3.78-.5-2.14.66-.82,6.91L113,57.3l.49,5.1-8.06,3.12-1-1,.82-7.24-2-1.64-13.48-.33L88.2,61.74l1.64,3.78h15.62L105,69.14l-2.3,4.77L106.12,77l2,5.27-3.29,3.94-3.45,5.26,4.28,1.81.49,2.14-1.64,3.45,1.31,3.95-4.93,2.8-1.65,2.13-4.27,2.31-6.41-1.81H78.66l-2.47-.5-3.12,1.48L69,113.37l-2.31-2.46-5.26,2.46L57.94,113,52,115l-3.29,4.27-.33,3-2.14.17-3.45,3.45-2.14,3.29L38,125.71l-3.12-.5-2.14-1.81-4.11-.65-7.24-3.46-2.13-1.81-3-.65-2.47-2-6.74-.49,1.48-4.27-4.93-3,.16-5.1L.39,94.13l.82-5.75L4,83.94l1.48-4.11,2.63-1.32,3-3.78-.32-4.6,2.46-2.8,3.29-1.81,2.3-2.79,5.43-1.48,3.29-6.09,1-4.77L31,47.6l3.46-2,2.63.49,1.15-1.65,2.46-7.07-.49-2,1.32-5.1,1.15-.16V22.93l4.93-8.38.16-4.11,1.48-3.13.66-2.79,3-3.79,1.32,3.13-1.32,2.3.66,2.63,9.87,4.44L68,14.55,72.9,5.17l1.48-1L78.49,7.8l1,4,2,1.65L90,13.23l9.2,3.13L97.9,13.23l5.1,1.32,6.08-2.8,5.59-.66L117,8.63Z"/></g></g></svg>