<svg xmlns="http://www.w3.org/2000/svg" viewBox="0 0 123.13 164.82"><defs><style>.cls-1{fill:none;stroke:#fcfcfc;stroke-miterlimit:10;stroke-width:0.75px;}</style></defs><g id="Camada_2" data-name="Camada 2"><g id="Lineart"><path id="MA" class="cls-1" d="M122.24,29.53l.5,3.45-3.46,4.94-3,3-5.09,1.31-3.46,3.46-1.31,4.44L102,55.35l.33,2.63,1.81,2.3-1.48,4.93.82,1L105.31,72l-.5,2.79L100,80.51l.5,7.4,3.94,3.45L104,96.79l-2.47,3.78-7.72,1.31-4-2.46-6.58,1.31L79,106.32l-2.8,1-3.62,3.12-4.44,2.14-6.57,1.81-3.46,2.3-1.48,5.1-.33,3.45-2.79,5.1-.49,2.8-3,3.45-1,2.47,1.48,7.23,1.64,1.48-1,10.53-1.48,3V164l-2.47-2-4.6-.82-2.14-2.8L40.19,156l-3.29-2.3,2.47-3.45-3.78-2.47-1.65-4.27-4.11-3.29,3-2.8-.33-1.64,1.65-4.94,2-1,3.78-.17.33-7.89-1.65-1.15-5.09,1.15-2.63,1.48-4.77-6.74-3.62-4-.33-3L20,107.47l2.14-2.63,1.15-8.38L24.57,91l-1-2.3.33-4.11-1.32-2.31-.49-4.43-8.55-4.61-2.8.49L7.47,72.12l-3.29.66L.72,75.41l-.16-.17L17,61.92l2.63.33,4.77-5.92,1.65-3.45L30,48.6l.66-4.76,1.48-3.13,2.3-1.31,2.63-3.95V29l4.28-3.95-.49-2.63,3-3.95,1-3V11.11l1.48-8.55,1-.49,5.59,1L53.67.75,58,6l2.14.65.16,4.61L63.54,7l3.78.33,4.28,5.43,3.29.66.49,5.26,2.3,2.79-2.47,2-2.13,5.09-1.15,5.1,1.15,1L77,31.83l1.81-7.23,4.28-1.48.49,1.64-2,3.13,7.07-2.8,5.26.66-.49-3.62,2.79.16L107,25.91l3.45,3,4.44.66.5,1,4.93.49Z"/></g></g></svg>