<svg xmlns="http://www.w3.org/2000/svg" viewBox="0 0 197.99 161.91"><defs><style>.cls-1{fill:none;stroke:#fcfcfc;stroke-miterlimit:10;stroke-width:0.75px;}</style></defs><g id="Camada_2" data-name="Camada 2"><g id="Lineart"><path id="MG" class="cls-1" d="M191.29,68.79l-3.62-1.32L179,68.79l-.5,2.46-3.61,3.46,2.46,2.63-.49,3.78,2,1-2.3,6.41,2,2.63-.32,5.59-3.62,4.11-.33,3.29-2.14,1.48-1.15,4.61-6.41.32L162,121.41l-4,4.27-4.93,11.84,1.65,1.48-13.32,6.09-5.43-.5-2.14,1h-5.43l-5.75,2.14-2.14,1.48-3.94.16-6.91,2.8L106,153.31l-6.09,3.62-1.31-1-4.44,1-.17,2.63-2.46,1.31-4.61.66-3.78-.33-1.15-6.58-4.28-2.13-1-2.14,1.48-6.09-1-3.28,3.29-5.59-.33-1.16-5.43-2-3.12-.16-4.11-8.55,2-4.44-.66-2.47-2.46-2,1-4.12-3.61-3.12H60.23l-3.61-1.15-.83,2.3-12,.33-4.93.82-5.27,2.47L31,109.73l-.16-2.63-4.28-1.81H20.44l-8.06-1-2-1.81L7,105.13,3,106.61l-2.14,2-.49-6.41,1-5.43L3.5,93.45,7,90l2.13-.16.33-3,3.29-4.28,5.92-2,3.45.33,5.27-2.47L29.65,81l4.11-4.12,3.12-1.48,2.47.5h9.87l6.41,1.81,4.27-2.31,1.65-2.13,4.93-2.8-1.31-3.94L66.81,63l-.49-2.14L62,59.09l3.46-5.27,3.28-3.94-2-5.27-3.45-3.12,2.3-4.77.49-3.62L74.21,30l-.49-5.1-1.15-3.12.82-6.91,2.14-.66,3.78.5-.5-4.11,1.32-1.81,3.62,3.62,3.62.49,1.31-1.32,1.65,4.77,3.28.33,3.29-3.78h2L103,9.1l5.92-2.31.82-1.64L114.5,2,118.44.38l6.09.49L128,2,126.5,6l.33,2,6.58,2.3,4.93-3,4.28.82,5.92,4.77,9.53,4.44,5.1-1.32,7.89,7.07.5,4.11,3.12,1.16,3-1.65,5.76.49,7.73,2,6.41,5.42-1.32,3.29-2.13,1.81-1.48,2.8-2.14.33-.66,5.75-3.12-.16-1.81,4.77,1.64,7.89,5.26,4.77Z"/></g></g></svg>