<svg xmlns="http://www.w3.org/2000/svg" viewBox="0 0 127.81 130.45"><defs><style>.cls-1{fill:none;stroke:#fcfcfc;stroke-miterlimit:10;stroke-width:0.75px;}</style></defs><g id="Camada_2" data-name="Camada 2"><g id="Lineart"><path id="MS" class="cls-1" d="M90.58,15.71l-.16,5.1,4.93,3L93.87,28l6.74.5,2.47,2,3,.66,2.13,1.8,7.24,3.46,4.11.66,2.14,1.8,3.12.5,2.63,3.45-1,5.43.49,6.41-2.47,3.78L121,59.61l-5.1,6.25-.16,3.46-4.44,5.59.33,3.29-4.28,3.94,1.15,2.14-4.6,4.93-1.32,3.29-8.22,6.09-2.3.82L88.44,104,83,106.48l-2.14,1.64-.66,3.62-2,4.28-3.46,1.8-2.13,7.57L72.49,128l-3,2L63,125.22l-5.42,3-4.94,1.16-4.11-1.65-.16-3.78-1.48-2.63.33-4.28-2.63-10.85.65-3.29-2.13-2-.17-2.3-2.46-2.14L35,96,31.05,92l-2.79,2.3L23,96.12l-6.09-1.81-2.79.33L5.89,93.32,3.43,91.19l1.64-6.58-1-3.29,1.48-3,.32-5.92-1.15-3,.83-3L3.76,65,3.1,61.92.47,55.83l5.1-3.45L1,47.77,8,33l-1-.66,4.11-13.49L8,12.58V10.45l4.61,3.12,6.08-2.14L21.19,9l3.94-6.25,7.57-.49L37.47.42l4.76,3,2.8.49,1.64,2.3,6.42,3.45L58,9,61.64,6.5l2.63-.16,3.29,3.12,3.62-1,6.57-6.74,1.65-.16L78.25,8.8l-2,.82-2.13,3.79,4.44,2.13,7.56-.16Z"/></g></g></svg>