<svg xmlns="http://www.w3.org/2000/svg" viewBox="0 0 202.33 194.72"><defs><style>.cls-1{fill:none;stroke:#fcfcfc;stroke-miterlimit:10;stroke-width:0.75px;}</style></defs><g id="Camada_2" data-name="Camada 2"><g id="Lineart"><path id="MT" class="cls-1" d="M201.73,45.49l-3,5.59-.5,3.29-3.12,6.08L195,67.36l-2.3,8,1.65,1.48-1,2.14,1,4.77-.33,4L195,92l-.65,2.14,1,4.6,2,.83-1.48,3.12-.17,4.11-4.93,8.39v7.23l-1.15.17-1.32,5.09.49,2-2.46,7.07-1.15,1.64-2.63-.49-3.46,2-2.46,2.8-1,4.77-3.29,6.08L166.86,155l-2.3,2.8-3.29,1.81-2.46,2.79.33,4.61-3,3.78-2.63,1.31-1.48,4.11-2.8,4.44-.82,5.76,3.45,7.89-4.44-.33-7.56.17L135.46,192l2.13-3.78,2-.82,1.15-7.24-1.65.17-6.57,6.74-3.62,1-3.29-3.12-2.63.16-3.62,2.47-4.93.66L108,184.76l-1.65-2.3-2.79-.49-4.77-3L94,180.82l-7.57.49-3.94,6.25L80,190,74,192.16,69.35,189l-1.64-3.95-3-.16-4.28-3.29-2.63-1.31-1.64-7.24V169l2-2.47.33-4.11-3.45.66-28.12-1-1-1-1-13.16-5.09-6.58,4.44-.82L24.13,132l-3.29-9.54L22.32,120,21,117.18l-4.61-2.79,5.59-4,1-3.13,2.8-5.59,2-.65,4.6-9.71L31.2,86.43l-1.64-3.62-1.48-.33L27.26,78l3.45-5.42L29.39,69l-8-2.63L3.25,66.2l-1-3.78,1-5.92-2-5.92,1.64-8.71L.78,36.28l2.14-7.4L.78,26.25l54.1-.5,1.32-1L59,14.57,57.84,9.31l2.47-3.12.33-3.79L62.12.59l2.79,3.46,3.46,9.37,2.46,3.12-.66,3.95,1.65,5.59,5.1,3.46,3.45,1.8.49,2.8L85,35.29l6.75,3.45,24.17,1.65L183,44.5Z"/></g></g></svg>