<svg xmlns="http://www.w3.org/2000/svg" viewBox="0 0 228.92 221.15"><defs><style>.cls-1{fill:none;stroke:#fcfcfc;stroke-miterlimit:10;stroke-width:0.75px;}</style></defs><g id="Camada_2" data-name="Camada 2"><g id="Lineart"><path id="PA" class="cls-1" d="M144.35,56.32l-.32,2.3-4.61,2V59l2.63-2.3Zm-7.07-.49,1.32,1.48-2.14,6.57-9,7.73-3-.49L125.77,68l2.8-2,.82-5.1,2.47-3.61,3.94-2.14Zm20.06-7.4,7.73,1.8,4.11-.16,1.65-1.32,7.07.17.66.82,8.22.82,1,2-1.65,2.13L185,61.42l-1.81,3.45-3,2.14-.82,4.44-6.74,3.29-2.63.32-2.31-1-2.63,3-3,1.15-3.94-2-2,1.15-4.44,1-3-.65-.16-2-2.8-2.63-1.15-3.29.5-2.79-.33-4.94.33-4.44,2.3-6.9,4.93-3Zm-14.14,3-2.46-2.47,1.48-2.8,3.29-1,2.13,3ZM168,44.81l2.14.66-1.31,2.63-4.94.49L165.57,45Zm-.65-4.11-3,1.81L162,45.79,158.82,47l-1.47-1.48-3.62.32-1.32-3.61L157,42l1.31-1.31h3.13l3.78-1.48Zm-14.47-4,.32,4.28-2.63.16.66-4.6Zm5.42-1.15-.16,1.31-4.11,2.8.65-4.11ZM74.63,2.55,75.78,6,74.47,8.47l1,6.25,6.42.16,3.78,2,1.48,2.63,3.29,1.81,3.78-.49,3.45,5.26,1,3.29L104.07,34l-.33,5.26,1.48,2.3,2.14,7.89,1.64-.16L112.62,53l-.17,2.8,2,1.64v3.62l2,.16.82,3.62,5.43,2,2.63-.33-.16,3-2.64,1.32-3.12-1-5.92,3.13,2.63.82,2.63-1,2.14,2.14,3.45-.66,5.1-3.45,6.91-3,4.44-3.45.65-2.14h3l-1.48,3.62,1.65,2v3.62l2.3,3L149,79.5l1.81.5,7.73-1.81,5.26,1.64,4.6-2.63L170,79.5l-1.32,5.1,2.14.33,3.62-7.73,2.79-3,2.63.5L183,70.46l1.81,3.45,1-5.26,2.47.66,1.15-3.45,2.47-4-.33-2.14,3.62-.66,3.94-1.8L203.72,59l3.29-2.3,6.9,4.11,7.07.66.33,2.63,3,.16,1.32,2,2.46,1.16-1,.49-1.48,8.55v4.44l-1,3-3,4,.49,2.63-4.27,3.94v6.42l-2.63,3.94-2.3,1.32-1.48,3.12-.66,4.77-3.95,4.28-1.64,3.45-4.77,5.92-2.63-.33-16.45,13.32.17.17,3,1.15,2.79-.5,4.61,4.61-2.8,1.48,1.15,2.79-2,1.65,1,2-2.63,1.32-1.16,3.28-3,3.29-.32,2.31-5.76,2-3.29,2.14.17,5.92L170,178.83v2.63l3.45,2.46-.33,4.94-2,5.75-1.32,1-3.45,7.07-3.13,1.48L158,211.38l-1,4.28-2.14,5.1-18.75-1L69,215.66,44.87,214l-6.74-3.45L34,209.41l-.5-2.79-3.45-1.81L25,201.35l-1.64-5.59.66-3.94-2.47-3.13-3.45-9.37-2.8-3.45-1-3.13L11,169.45l-1.64-3.78,3.12-4.77,27.14-58.54,6.57-14.14-.32-2.14-2-1.81-2.14,1-2-.82L39.61,82,35.5,80.33l-1.65-2.14L23.66,74.08l-3-2.63L16.26,69l-5.92-5.1-.66-3-2.8-1.31-2.46-2.3.16-3.79L2.44,51.71,2.28,42,.47,22.77l2.14,2.14,3-1.64,3,.33V20.47l3.62-2.79,5.09,1.48L18.72,17l2.63-1.15H25.3l3.95-4.61,4.27-1,1.65,1.8,3.78.83,3.12-1,5.1.16,5.43,1.48,1.81-.82V10L51.94,6.66l1.15-4.93,4.77,2L63.61,3l1.81-1.48L70,.41l2.79,2.3Z"/></g></g></svg>