<svg xmlns="http://www.w3.org/2000/svg" viewBox="0 0 70.67 40.97"><defs><style>.cls-1{fill:none;stroke:#fcfcfc;stroke-miterlimit:10;stroke-width:0.75px;}</style></defs><g id="Camada_2" data-name="Camada 2"><g id="Lineart"><path id="PB" class="cls-1" d="M67.33,8.81,67.16,11l1.65,6.58,1.48,3L70,27.23l-1.48.17-3-2.47-3.95-.33-3.78,1.15-1,3.62-5.92,2-1,1H41.51l-2.63,1.81-1,2.79L35.1,39.4l-2.63,1.15L29,38.41l-.16-3.29-2.47-1,2-3-.66-3.13,3.45-1.31-1-2.14-3.46-2-3.12,1.15-2,2.46-2.8,1.16-4,3.45-3.94.66L9.28,32.82,7.47,30.19,4.68,31.34,1.39,28.71l3-5.59L1.88,20.65.4,16.87l4-10.19L8.62,9l2.8.16L17.34,5.2,18,3.06,26.71.43l1.48,1.64L24.57,6.35,22.44,12.1l3,.17,2,2.3,3-1.15,4.77.16,1.31,3.62,2.64-1L40.2,6.84l3.61-1.48.66,2,5.92.83L55,7.5,60.26,9,66,9.47Z"/></g></g></svg>