<svg xmlns="http://www.w3.org/2000/svg" viewBox="0 0 117.81 40.4"><defs><style>.cls-1{fill:none;stroke:#fcfcfc;stroke-miterlimit:10;stroke-width:0.75px;}</style></defs><g id="Camada_2" data-name="Camada 2"><g id="Lineart"><path id="PE" class="cls-1" d="M115.7,5.18l1.64,1.32L115.7,9.79l1.48,1.8-2.31,8.06-3.61,10L105.5,28.2l-4.28,1.48-1.48-.82L96,29.19l-5.75,5.59-4.44,1.64-5.1-.49-1.15,1.48-4.11-2-3.78-3.62-3-1.64L64.06,31l-7.4,6.08L55.35,33.3l-3.46-3.12-6.25-3.13L39.4,25.41l-3.29-2.63-4.94,2.13L31,27.22l-3.62,1,.17,2.3L23.45,33H20.81l-1,4.44-5.26,2.47-1.48-4.77-2.8-1.65L10,28.7,5,25.9l-3.62.16L9.3,21.13l5.92-5.75.83-4.77L13.91,9l.66-2.13L13.41,3l2.64-.65,8.38.32,3.78-1,3.46.33,5.59,3.29,1.64,2.3,4.94,3,1.64-2.47L48.6,6.5l3.29,2.63L54.69,8l1.81,2.63,1.64-1.32,4-.66L66,5.18,68.83,4l2-2.47L73.93.41l3.45,2,1,2.13L74.91,5.84,75.57,9l-2,3,2.47,1,.16,3.29,3.45,2.14,2.63-1.15,2.8-2.47,1-2.8,2.63-1.81h8.38l1-1,5.92-2,1-3.61,3.78-1.15,3.95.32Z"/></g></g></svg>