<svg xmlns="http://www.w3.org/2000/svg" viewBox="0 0 99.15 145.96"><defs><style>.cls-1{fill:none;stroke:#fcfcfc;stroke-miterlimit:10;stroke-width:0.75px;}</style></defs><g id="Camada_2" data-name="Camada 2"><g id="Lineart"><path id="PI" class="cls-1" d="M84.09,5.15,81,10.58l-.49,2.13,3,6.58,1,4.11,2.63,4.94-2.8,3.78,1,6.74,2.14,4.44v2.8l2.14,2,.82,10.19,1.81,5.1,1.31,6.25,4.44,1.64.82,1.16-3,7.23.83,3.12L94,83.42l1.15,3.78-.66,2.14L96.59,91l-.83,4.77-5.92,5.75L82,106.44l-3.12,4.44-3.29.33v3l-1.65,1.48-4.11-.33-1.64,1.48-3.29.5-2.63,3.12-6.41,1-3.46-2.8-5.92.33-1.31-2-2.8.49-1.64,2.14-2.14-.33L40.35,125l.49,4.6-1.15,3-2.63,3.62L33.44,140l-2.14.82-3-.82-2.63.82-5.09,4.44-3.79.33-4.77-2.14-2.63-5.26-2.3-2.8H4.34l-3.29-.16v-2.79l1.48-3,1-10.53-1.64-1.48L.39,110.23l1-2.47,3-3.45.49-2.8,2.8-5.1L8,93l1.48-5.1,3.46-2.3,6.57-1.81,4.44-2.14,3.62-3.12,2.8-1,4.27-5.59,6.58-1.31,3.95,2.46,7.73-1.31L55.31,68l.5-5.43-4-3.45-.49-7.4,4.76-5.76.5-2.79-1.81-5.76-.82-1,1.48-4.93-1.81-2.3-.33-2.63,4.44-5.27,1.31-4.44,3.46-3.45,5.1-1.31,3-3,3.45-4.94L73.56.71l4.28,2.47,4.6.33Z"/></g></g></svg>