<svg xmlns="http://www.w3.org/2000/svg" viewBox="0 0 116.23 81.4"><defs><style>.cls-1{fill:none;stroke:#fcfcfc;stroke-miterlimit:10;stroke-width:0.75px;}</style></defs><g id="Camada_2" data-name="Camada 2"><g id="Lineart"><path id="PR" class="cls-1" d="M115.66,54l-4.6.33-3.29,3.78,1.64,2.14-2.63,7.07-9.54.17-8,4.6L82.77,68l-12.5,1L67,72.75l-4.28-.5L58.93,76l1,3.61L57.12,81l-2-1.48-9-.49-2.79-2.31L38.21,76,32,74.23l-5.26.66-4.28-2.47-2.46,1-3-.66-3-6.09-1.32-6.41L7.29,58.44,3,60.58.72,58.77l-.33-2.3,3.12-5.92-.65-1.48,2.63-8.22,1-5.76L5.16,31.47,6.8,29.66l3-2,.17-2.63,2.13-7.56,3.46-1.81,2-4.28.66-3.62,2.14-1.64,5.42-2.47,3.95-2.63,7.56,1L46.1.39l2.47,1.48,6.58,1.48,2.79-.65L62.05,5l4.11,1L68,8.45l6.91-.66,1.81.66,4.6-.66,2.8,2.8,2.46.82L88.69,17l-.82,2.14,1.81,3.95-.82,3.29,4.76,5.09,1.81,4-1.31,6.25,12,.16,3.62,5.43L113,48.41Z"/></g></g></svg>