<svg xmlns="http://www.w3.org/2000/svg" viewBox="0 0 69.78 50.23"><defs><style>.cls-1{fill:none;stroke:#fcfcfc;stroke-miterlimit:10;stroke-width:0.75px;}</style></defs><g id="Camada_2" data-name="Camada 2"><g id="Lineart"><path id="RJ" class="cls-1" d="M69.32,9.86l-1.81,4.6,1.81,8.06-.49,1.31L64.39,26.3,57,28.93l-5.92,6.25,1.15,3.12-2.14,3.46-5.59-.33-11.67.82L32,36.33,28.7,37.81l1.81,3-1,1.81-7.24.66-4.11-2.31-3.62.83-2.13,2-3-2.3L4.2,43.57,2.89,49.49.42,47l1.32-4.61,3.61-2.13L9.47,40l3.45-3.13L11.6,35H4.37L1.08,31.23,8,28.44l3.94-.17,2.14-1.48,5.75-2.13h5.43l2.14-1,5.43.49,13.31-6.08L44.49,16.6,49.42,4.76,53.37.48,56,2.13l-.16,4.11,2.63,1.48L64.22,9l3.46-.33Z"/></g></g></svg>