<svg xmlns="http://www.w3.org/2000/svg" viewBox="0 0 65.07 38.92"><defs><style>.cls-1{fill:none;stroke:#fcfcfc;stroke-miterlimit:10;stroke-width:0.75px;}</style></defs><g id="Camada_2" data-name="Camada 2"><g id="Lineart"><path id="RN" class="cls-1" d="M64.59,30.05l-1.31.66-5.76-.5-5.26-1.48-4.61.66-5.92-.82-.65-2-3.62,1.48-1.15,9.38-2.63,1-1.32-3.61-4.77-.17-3,1.15-2-2.3-3-.16,2.14-5.76,3.61-4.27L24,21.66l-8.71,2.63-.66,2.14L8.68,30.38l-2.79-.17-4.28-2.3L.46,26.27l3-4.12,2.3.33,3-3.45,1.48-4.77,2.3-2.63,3.29-6.91L19,2.26,24.3.45l1,1.48,5.1.33L34,5.05l7.23.17,5.1-1,7.4,1.32,2.79,1.64L59.33,12l3,12.66Z"/></g></g></svg>