<svg xmlns="http://www.w3.org/2000/svg" viewBox="0 0 124.86 102.62"><defs><style>.cls-1{fill:none;stroke:#fcfcfc;stroke-miterlimit:10;stroke-width:0.75px;}</style></defs><g id="Camada_2" data-name="Camada 2"><g id="Lineart"><path id="RO" class="cls-1" d="M92.89,14,95,16.65l-2.14,7.4L95,29.65l-1.65,8.71,2,5.92-1,5.92,1,3.78,18.09.17,8,2.63,1.32,3.62-3.45,5.42.82,4.44,1.48.33,1.64,3.62,1.15,4.93-4.6,9.7-2,.66-2.8,5.59-1,3.13-5.59,3.94-3-2L97.5,99l-8.23,1-5.09-5.09L84,92.79l-5.59-.33-.49-1-5.59-1.15L68.55,87.2l-1.48-3.45-4.44,1-3-2.63-3-1.48-3.61-.16-1,1.31-8.55-1.48-1.15-3.62L38,74.7l-1.32-2.14-3.12-.33-1.65-4.6-2.46-.49-.33-3.79-2.3-2.3L26,56.78l1.65-3L25.8,50.36l-.66-5.92,2.8-4.76L27,35.4l.66-2.14-2.47-3-2.46,2.8-3.95-1.48-4.93.49-6.42,2-3.61.5L.64,33.1l1.65-1.65,4.11-2,2-2.14v-2h7.89l3.46,3,1.81-2,3-.17,4.76-3.45,1.15,2.79h1.81l2.14-3L35,19.12,36.82,18l3.94.49L43.89,17h4.6l-.33-4.27,2.64-.5,1.31-2.46V6.13l3.12-.82,2.64-2.14,1-2.79H70l3.13,1,3.29,5.43L79.24,7l1.48,3.62,2.3.49.5,2.8,4.27,2,3-3.29Z"/></g></g></svg>