<svg xmlns="http://www.w3.org/2000/svg" viewBox="0 0 103.16 118.8"><defs><style>.cls-1{fill:none;stroke:#fcfcfc;stroke-miterlimit:10;stroke-width:0.75px;}</style></defs><g id="Camada_2" data-name="Camada 2"><g id="Lineart"><path id="RR" class="cls-1" d="M100.93,70.34l1.81,19.24H82.35l-1.81,1.64-3.28,6.42-1.48,5.09,1.48,3-3.62,2.47-4,.49-3.29-5.26-3.12-1.15-6.41,2.63-1.32,2.3-.33,4.61-1.15,4.27.33,2.31-4.77-.66-2.63-4-5.1-3.45-3.45-3.13,3.62-3-1.16-4.93-2.13-2-1.65-4,1.15-1.48-.82-2.63L38.78,84,38,80.54l1.65-1.16-3-10.52-3.13-3.62,1.32-2L35,59.16l-6.08-1.65-2.14-2.46-3.78-1V50.77H15.1L11.32,50l.82-4.44-4-7.24-.33-5.09.82-2.63-2.3-2.8-3.62-2.3L.46,23l1.32-2.3,3.94-.49,4,.65L11,24.46l3.45-.66,4.44.17,2.63,1.31,3.29-1,5.1,5.59h3.61l.83-2.47-.83-2.79.83-2.31,3.29-.16,3.12-2.47L44,21.17l5.1-1,3-1.81,3.12.16,1-2.79,9.37-2.31,1.32-3,2.46-1L72,6.87,71.17,2.1l5.76-.33L79.06.45l4.12,3.13L81.86,14.1l4.28.66,2.3,1.32-1,3.28,3.62,4.28-2.63,4.44-2.8,1.64.17,4.12L83.5,39.43,82.85,46l1.48,5.59,3,2v5.26l3.12,4.28,5.76,6.08Z"/></g></g></svg>