<svg xmlns="http://www.w3.org/2000/svg" viewBox="0 0 140.33 136.54"><defs><style>.cls-1{fill:none;stroke:#fcfcfc;stroke-miterlimit:10;stroke-width:0.75px;}</style></defs><g id="Camada_2" data-name="Camada 2"><g id="Lineart"><path id="RS" class="cls-1" d="M139.63,44.48l-5.92,9.87L129,67.67l-7.24,12-7.56,9-7.24,6.09-5.26,3.29-3.13,3.61-.82-5.26,2.8.33,3.94-1.64,5.1-5.76,3-1,1.65-3.78-.33-2.79,3.12-2.14.33-3,3.78-1.81,1.32-1.81L125,63.72l-6.41.82-4.11-1.31L111.68,71l-1.48.5.16,4.93-1.31,4.11-3.13,1-.65,2.63-4.77,1-1,5.59-4,3.12.5,3.62-1.48,3.12,2.79.5-4.93,8.71-1.64,6.41-2.63,6.42-3.46,4.6-9.86,8.88-3-2,.65-11.68L76,119.63l3.29-4.44-2.47-3.13-5.26-3.29-3.62-8.38-5.59-3.46-1.15.66-5.59-4.93-2.14-4.28-4.11-.65-7.73-4.28L40,80l-4.27-4.44-4.77,4.77L28.15,80l.65-4.28-4.11-5.59-3-2.14L17,62.73l-3.12-2.46-4.28.16L7.1,64.05l-5.27-.17L.52,62.4,5.12,58l.33-2.79,3.46-1.65,7.56-8.88,1.81-4.11,3-1.48,2.14-5.26,2-1,4.93-5.75,2.47-4.11,2.79-2.8,3-.66L42.78,15l3-.49,2-2L49.19,8.8,51.5,9l7.23-2.47,1.81-3.28,6.08-2L74.35.41l4.28,1,2.46-1,5.1,2.47,3.46-.33,6.41.66,4.77,3.94,5.42.66,2.63,1.48,4,4,2.63,1,3.46,4.11,4.6,7.07,1.48.83,10.52,1,4.11,1.32-3.78,3.78-.33,4.6-2.46,5.92,3.78-.49Z"/></g></g></svg>