<svg xmlns="http://www.w3.org/2000/svg" viewBox="0 0 97.14 67.5"><defs><style>.cls-1{fill:none;stroke:#fcfcfc;stroke-miterlimit:10;stroke-width:0.75px;}</style></defs><g id="Camada_2" data-name="Camada 2"><g id="Lineart"><path id="SC" class="cls-1" d="M94.17,36.72,95,31.13l1.64.82ZM93.51.38V3.83L90.71,7l2.47,2.3-1.31,5.92.82,2.3.16,7.73,1,1.65L92.36,30l1.31,7.07-2.13,10.2-4.28,6.08L80,58.92,73.61,67l-2.79-2.14L67,65.33l2.46-5.92.33-4.6L73.61,51,69.5,49.71,59,48.73,57.5,47.9l-4.61-7.07-3.45-4.11-2.63-1-4-4-2.63-1.48-5.42-.66L30,25.71l-6.42-.66-3.45.33-5.1-2.47-2.46,1-4.28-1L.6,23.73l2.3-5.26L1.92,15,3.73,5.81l3,.66,2.46-1L13.43,8l5.26-.66L24.94,9.1l5.1.65,2.79,2.31,9.05.49,2,1.48,2.8-1.32-1-3.61,3.78-3.79,4.28.5L57,2,69.5,1l6.42,4.11,8-4.6Z"/></g></g></svg>