<svg xmlns="http://www.w3.org/2000/svg" viewBox="0 0 161.42 106.83"><defs><style>.cls-1{fill:none;stroke:#fcfcfc;stroke-miterlimit:10;stroke-width:0.75px;}</style></defs><g id="Camada_2" data-name="Camada 2"><g id="Lineart"><path id="SP" class="cls-1" d="M149.08,50.15l3.29,3.78h7.24l1.31,1.81-3.45,3.12-4.11.33-3.62,2.14-1.32,4.6,2.47,2.47-3.95.33-2.3,2.47-6.08,3.29-1.81,3.12-5.92-1.48-7.24,4.11L118,82.54l-6.74,4.11-.49,2.14L103,94.05l-3.45,1.48-4.44,3.79L94,104.25l-2.31,2-2.63-5.59-3.29-1.15-3.61-5.43-12-.16,1.32-6.25-1.81-4L64.89,78.6l.82-3.29-1.81-4,.83-2.14-2.14-5.59-2.47-.82L57.33,60l-4.61.66L50.91,60l-6.9.66L42.2,58.21l-4.11-1L34,54.92l-2.8.66L24.6,54.1l-2.46-1.48-8.88,1.64-7.57-1L1.75,55.9l3.61-4.6,2.3-.82,8.23-6.09L17.2,41.1l4.61-4.93L20.66,34l4.27-3.94L24.6,26.8,29,21.21l.17-3.46,5.09-6.24,3.46-1.16,2.46-3.78,2.14-2,4-1.48L49.76.49l2,1.81,8.06,1h6.09l4.27,1.81.17,2.63L73,10.19l5.26-2.47,4.93-.82,12-.33L96,4.27l3.62,1.15H103l3.62,3.13-1,4.11,2.47,2,.65,2.47-2,4.44,4.11,8.55,3.13.16,5.42,2,.33,1.15L116.52,39l1,3.29L116,48.34l1,2.14,4.27,2.14,1.15,6.57,3.79.33,4.6-.66,2.47-1.31.16-2.63,4.44-1,1.32,1,6.08-3.62Z"/></g></g></svg>