<svg xmlns="http://www.w3.org/2000/svg" viewBox="0 0 88.99 147.53"><defs><style>.cls-1{fill:none;stroke:#fcfcfc;stroke-miterlimit:10;stroke-width:0.75px;}</style></defs><g id="Camada_2" data-name="Camada 2"><g id="Lineart"><path id="TO" class="cls-1" d="M85.11,92.31l3.29.17-.82,1.64-4.94,2.8-3.94,3.29L80,102.34l-2.63,2-3.29,6.41,2.63,2.8,4.12.65L82,116.81l-2.31.83,3.13,3.61-4.61,3.62.33,5.26,2.8,1.48L80,136.88l-7.23,2.3-2.3,2.47-5.6.65-6.08,2.8-5.1-1.32L55,146.91l-9.21-3.13-8.55.17-2-1.65-1-3.94-4.11-3.62-1.48,1-4.93,9.37-4.61-1.32L9.3,139.34l-.65-2.63,1.31-2.3-1.31-3.12-3,3.78L5,137.86l-2-.82-1-4.6.66-2.14-1-4.28.33-3.94-1-4.77,1-2.14L.42,113.69l2.31-8.06.16-6.9L6,92.64l.49-3.29,3-5.59,2.14-5.09,1-4.28,5.27-7.24L21,65.67l3.45-7.07,1.32-1,2-5.76.33-4.93L24.6,44.46V41.83l3.29-4.77-.17-5.92L31,29l5.76-2,.32-2.3,3-3.29,1.16-3.29,2.63-1.31-1-2,2-1.64-1.15-2.8,2.8-1.48-4.61-4.6-2.79.49-3-1.15,3.45-2.63L42.85.39,46.14,2l2.79-.5,8.56,4.61L58,10.59l1.31,2.3L59,17l1,2.3-1.31,5.43-1.16,8.39-2.13,2.63,2.13,2.13.33,3,3.62,3.95,4.77,6.74,2.63-1.48,5.1-1.15,1.64,1.15L75.24,58l-3.78.16-2,1L67.84,64l.33,1.64-3,2.8,4.11,3.29L71,76l3.78,2.47L72.28,82l3.29,2.31.33,2.46L78,89.52l4.6.82Z"/></g></g></svg>