<svg width="298" height="232" viewBox="0 0 298 232" fill="none" xmlns="http://www.w3.org/2000/svg">
<g id="INFOGR&#195;&#129;FICO">
<g clip-path="url(#clip0_336_45)">
<g id="infografico=normal" filter="url(#filter0_d_336_45)">
<path d="M20 62C20 38.804 38.804 20 62 20H243C266.196 20 285 38.804 285 62C285 85.196 266.196 104 243 104H62C38.804 104 20 85.196 20 62Z" fill="white"/>
<path id="INFOGRAFICO" d="M48.6855 49.8H53.6175V75H48.6855V49.8ZM64.7111 61.86L62.7311 57.9H62.5511L63.1271 61.86V75H58.4471V49.62H62.0471L71.5871 63.048L73.4951 66.9H73.6751L73.0991 63.048V49.8H77.7791V75.18H74.1791L64.7111 61.86ZM82.1073 49.8H97.0473V54.192H87.0393V60.42H96.2553V64.812H87.0393V75H82.1073V49.8ZM99.5965 62.4C99.5965 58.2 100.521 54.972 102.369 52.716C104.217 50.436 106.857 49.296 110.289 49.296C112.089 49.296 113.661 49.608 115.005 50.232C116.349 50.856 117.465 51.744 118.353 52.896C119.241 54.048 119.901 55.428 120.333 57.036C120.765 58.644 120.981 60.432 120.981 62.4C120.981 66.6 120.045 69.84 118.173 72.12C116.325 74.376 113.697 75.504 110.289 75.504C108.465 75.504 106.881 75.192 105.537 74.568C104.193 73.944 103.077 73.056 102.189 71.904C101.325 70.752 100.677 69.372 100.245 67.764C99.8125 66.156 99.5965 64.368 99.5965 62.4ZM104.781 62.4C104.781 63.672 104.889 64.848 105.105 65.928C105.321 66.984 105.645 67.896 106.077 68.664C106.533 69.432 107.109 70.032 107.805 70.464C108.501 70.896 109.329 71.112 110.289 71.112C112.041 71.112 113.397 70.428 114.357 69.06C115.317 67.692 115.797 65.472 115.797 62.4C115.797 61.176 115.689 60.036 115.473 58.98C115.281 57.924 114.969 57 114.537 56.208C114.105 55.416 113.541 54.804 112.845 54.372C112.149 53.916 111.297 53.688 110.289 53.688C108.537 53.688 107.181 54.396 106.221 55.812C105.261 57.204 104.781 59.4 104.781 62.4ZM133.398 61.86H142.794V73.092C141.786 73.932 140.574 74.544 139.158 74.928C137.766 75.312 136.386 75.504 135.018 75.504C133.41 75.504 131.91 75.252 130.518 74.748C129.15 74.244 127.962 73.464 126.954 72.408C125.946 71.328 125.154 69.96 124.578 68.304C124.002 66.648 123.714 64.68 123.714 62.4C123.714 60.024 124.05 58.008 124.722 56.352C125.418 54.672 126.318 53.316 127.422 52.284C128.55 51.228 129.81 50.472 131.202 50.016C132.594 49.536 134.01 49.296 135.45 49.296C136.89 49.296 138.15 49.404 139.23 49.62C140.334 49.836 141.21 50.064 141.858 50.304L140.85 54.444C140.25 54.204 139.578 54.024 138.834 53.904C138.09 53.76 137.142 53.688 135.99 53.688C134.958 53.688 134.01 53.844 133.146 54.156C132.282 54.468 131.526 54.984 130.878 55.704C130.254 56.4 129.762 57.3 129.402 58.404C129.066 59.508 128.898 60.852 128.898 62.436C128.898 63.948 129.066 65.256 129.402 66.36C129.738 67.44 130.206 68.34 130.806 69.06C131.406 69.756 132.102 70.272 132.894 70.608C133.71 70.944 134.574 71.112 135.486 71.112C136.11 71.112 136.722 71.04 137.322 70.896C137.922 70.728 138.426 70.488 138.834 70.176V65.424L133.398 64.848V61.86ZM146.443 50.052C146.995 49.956 147.583 49.872 148.207 49.8C148.855 49.704 149.491 49.632 150.115 49.584C150.763 49.536 151.387 49.5 151.987 49.476C152.587 49.452 153.139 49.44 153.643 49.44C154.819 49.44 155.971 49.548 157.099 49.764C158.251 49.98 159.271 50.352 160.159 50.88C161.071 51.408 161.791 52.14 162.319 53.076C162.871 53.988 163.147 55.14 163.147 56.532C163.147 58.596 162.667 60.276 161.707 61.572C160.747 62.868 159.463 63.768 157.855 64.272L159.619 65.388L165.379 75H159.691L153.967 65.136L151.375 64.668V75H146.443V50.052ZM154.003 53.832C153.499 53.832 152.995 53.844 152.491 53.868C152.011 53.892 151.639 53.94 151.375 54.012V61.32H153.463C154.831 61.32 155.923 61.008 156.739 60.384C157.555 59.76 157.963 58.728 157.963 57.288C157.963 56.208 157.627 55.368 156.955 54.768C156.283 54.144 155.299 53.832 154.003 53.832ZM179.184 69.42H171.444L169.536 75H164.604L173.676 49.62H177.312L186.384 75H181.2L179.184 69.42ZM172.704 65.46H178.104L176.232 59.844L175.476 55.884H175.296L174.54 59.88L172.704 65.46ZM175.728 43.68H181.452V44.76L175.692 47.928H171.984L175.728 43.68ZM188.56 49.8H203.5V54.192H193.492V60.42H202.708V64.812H193.492V75H188.56V49.8ZM207.346 49.8H212.278V75H207.346V49.8ZM234.171 73.956C233.403 74.508 232.419 74.904 231.219 75.144C230.043 75.384 228.831 75.504 227.583 75.504C226.071 75.504 224.631 75.276 223.263 74.82C221.919 74.34 220.731 73.584 219.699 72.552C218.667 71.496 217.839 70.14 217.215 68.484C216.615 66.804 216.315 64.776 216.315 62.4C216.315 59.928 216.651 57.864 217.323 56.208C218.019 54.528 218.907 53.184 219.987 52.176C221.091 51.144 222.315 50.412 223.659 49.98C225.003 49.524 226.347 49.296 227.691 49.296C229.131 49.296 230.343 49.392 231.327 49.584C232.335 49.776 233.163 50.004 233.811 50.268L232.839 54.444C232.287 54.18 231.627 53.988 230.859 53.868C230.115 53.748 229.203 53.688 228.123 53.688C226.131 53.688 224.523 54.396 223.299 55.812C222.099 57.228 221.499 59.424 221.499 62.4C221.499 63.696 221.643 64.884 221.931 65.964C222.219 67.02 222.651 67.932 223.227 68.7C223.827 69.444 224.559 70.032 225.423 70.464C226.311 70.872 227.331 71.076 228.483 71.076C229.563 71.076 230.475 70.968 231.219 70.752C231.963 70.536 232.611 70.26 233.163 69.924L234.171 73.956ZM235.229 62.4C235.229 58.2 236.153 54.972 238.001 52.716C239.849 50.436 242.489 49.296 245.921 49.296C247.721 49.296 249.293 49.608 250.637 50.232C251.981 50.856 253.097 51.744 253.985 52.896C254.873 54.048 255.533 55.428 255.965 57.036C256.397 58.644 256.613 60.432 256.613 62.4C256.613 66.6 255.677 69.84 253.805 72.12C251.957 74.376 249.329 75.504 245.921 75.504C244.097 75.504 242.513 75.192 241.169 74.568C239.825 73.944 238.709 73.056 237.821 71.904C236.957 70.752 236.309 69.372 235.877 67.764C235.445 66.156 235.229 64.368 235.229 62.4ZM240.413 62.4C240.413 63.672 240.521 64.848 240.737 65.928C240.953 66.984 241.277 67.896 241.709 68.664C242.165 69.432 242.741 70.032 243.437 70.464C244.133 70.896 244.961 71.112 245.921 71.112C247.673 71.112 249.029 70.428 249.989 69.06C250.949 67.692 251.429 65.472 251.429 62.4C251.429 61.176 251.321 60.036 251.105 58.98C250.913 57.924 250.601 57 250.169 56.208C249.737 55.416 249.173 54.804 248.477 54.372C247.781 53.916 246.929 53.688 245.921 53.688C244.169 53.688 242.813 54.396 241.853 55.812C240.893 57.204 240.413 59.4 240.413 62.4Z" fill="#EE7302"/>
</g>
<g id="infografico=hover" filter="url(#filter1_d_336_45)">
<path d="M20 167.5C20 144.58 38.5802 126 61.5 126H243.5C266.42 126 285 144.58 285 167.5C285 190.42 266.42 209 243.5 209H61.5C38.5802 209 20 190.42 20 167.5Z" fill="#EE7302"/>
<path id="INFOGRAFICO_2" d="M48.6855 153.8H53.6175V179H48.6855V153.8ZM64.7111 165.86L62.7311 161.9H62.5511L63.1271 165.86V179H58.4471V153.62H62.0471L71.5871 167.048L73.4951 170.9H73.6751L73.0991 167.048V153.8H77.7791V179.18H74.1791L64.7111 165.86ZM82.1073 153.8H97.0473V158.192H87.0393V164.42H96.2553V168.812H87.0393V179H82.1073V153.8ZM99.5965 166.4C99.5965 162.2 100.521 158.972 102.369 156.716C104.217 154.436 106.857 153.296 110.289 153.296C112.089 153.296 113.661 153.608 115.005 154.232C116.349 154.856 117.465 155.744 118.353 156.896C119.241 158.048 119.901 159.428 120.333 161.036C120.765 162.644 120.981 164.432 120.981 166.4C120.981 170.6 120.045 173.84 118.173 176.12C116.325 178.376 113.697 179.504 110.289 179.504C108.465 179.504 106.881 179.192 105.537 178.568C104.193 177.944 103.077 177.056 102.189 175.904C101.325 174.752 100.677 173.372 100.245 171.764C99.8125 170.156 99.5965 168.368 99.5965 166.4ZM104.781 166.4C104.781 167.672 104.889 168.848 105.105 169.928C105.321 170.984 105.645 171.896 106.077 172.664C106.533 173.432 107.109 174.032 107.805 174.464C108.501 174.896 109.329 175.112 110.289 175.112C112.041 175.112 113.397 174.428 114.357 173.06C115.317 171.692 115.797 169.472 115.797 166.4C115.797 165.176 115.689 164.036 115.473 162.98C115.281 161.924 114.969 161 114.537 160.208C114.105 159.416 113.541 158.804 112.845 158.372C112.149 157.916 111.297 157.688 110.289 157.688C108.537 157.688 107.181 158.396 106.221 159.812C105.261 161.204 104.781 163.4 104.781 166.4ZM133.398 165.86H142.794V177.092C141.786 177.932 140.574 178.544 139.158 178.928C137.766 179.312 136.386 179.504 135.018 179.504C133.41 179.504 131.91 179.252 130.518 178.748C129.15 178.244 127.962 177.464 126.954 176.408C125.946 175.328 125.154 173.96 124.578 172.304C124.002 170.648 123.714 168.68 123.714 166.4C123.714 164.024 124.05 162.008 124.722 160.352C125.418 158.672 126.318 157.316 127.422 156.284C128.55 155.228 129.81 154.472 131.202 154.016C132.594 153.536 134.01 153.296 135.45 153.296C136.89 153.296 138.15 153.404 139.23 153.62C140.334 153.836 141.21 154.064 141.858 154.304L140.85 158.444C140.25 158.204 139.578 158.024 138.834 157.904C138.09 157.76 137.142 157.688 135.99 157.688C134.958 157.688 134.01 157.844 133.146 158.156C132.282 158.468 131.526 158.984 130.878 159.704C130.254 160.4 129.762 161.3 129.402 162.404C129.066 163.508 128.898 164.852 128.898 166.436C128.898 167.948 129.066 169.256 129.402 170.36C129.738 171.44 130.206 172.34 130.806 173.06C131.406 173.756 132.102 174.272 132.894 174.608C133.71 174.944 134.574 175.112 135.486 175.112C136.11 175.112 136.722 175.04 137.322 174.896C137.922 174.728 138.426 174.488 138.834 174.176V169.424L133.398 168.848V165.86ZM146.443 154.052C146.995 153.956 147.583 153.872 148.207 153.8C148.855 153.704 149.491 153.632 150.115 153.584C150.763 153.536 151.387 153.5 151.987 153.476C152.587 153.452 153.139 153.44 153.643 153.44C154.819 153.44 155.971 153.548 157.099 153.764C158.251 153.98 159.271 154.352 160.159 154.88C161.071 155.408 161.791 156.14 162.319 157.076C162.871 157.988 163.147 159.14 163.147 160.532C163.147 162.596 162.667 164.276 161.707 165.572C160.747 166.868 159.463 167.768 157.855 168.272L159.619 169.388L165.379 179H159.691L153.967 169.136L151.375 168.668V179H146.443V154.052ZM154.003 157.832C153.499 157.832 152.995 157.844 152.491 157.868C152.011 157.892 151.639 157.94 151.375 158.012V165.32H153.463C154.831 165.32 155.923 165.008 156.739 164.384C157.555 163.76 157.963 162.728 157.963 161.288C157.963 160.208 157.627 159.368 156.955 158.768C156.283 158.144 155.299 157.832 154.003 157.832ZM179.184 173.42H171.444L169.536 179H164.604L173.676 153.62H177.312L186.384 179H181.2L179.184 173.42ZM172.704 169.46H178.104L176.232 163.844L175.476 159.884H175.296L174.54 163.88L172.704 169.46ZM175.728 147.68H181.452V148.76L175.692 151.928H171.984L175.728 147.68ZM188.56 153.8H203.5V158.192H193.492V164.42H202.708V168.812H193.492V179H188.56V153.8ZM207.346 153.8H212.278V179H207.346V153.8ZM234.171 177.956C233.403 178.508 232.419 178.904 231.219 179.144C230.043 179.384 228.831 179.504 227.583 179.504C226.071 179.504 224.631 179.276 223.263 178.82C221.919 178.34 220.731 177.584 219.699 176.552C218.667 175.496 217.839 174.14 217.215 172.484C216.615 170.804 216.315 168.776 216.315 166.4C216.315 163.928 216.651 161.864 217.323 160.208C218.019 158.528 218.907 157.184 219.987 156.176C221.091 155.144 222.315 154.412 223.659 153.98C225.003 153.524 226.347 153.296 227.691 153.296C229.131 153.296 230.343 153.392 231.327 153.584C232.335 153.776 233.163 154.004 233.811 154.268L232.839 158.444C232.287 158.18 231.627 157.988 230.859 157.868C230.115 157.748 229.203 157.688 228.123 157.688C226.131 157.688 224.523 158.396 223.299 159.812C222.099 161.228 221.499 163.424 221.499 166.4C221.499 167.696 221.643 168.884 221.931 169.964C222.219 171.02 222.651 171.932 223.227 172.7C223.827 173.444 224.559 174.032 225.423 174.464C226.311 174.872 227.331 175.076 228.483 175.076C229.563 175.076 230.475 174.968 231.219 174.752C231.963 174.536 232.611 174.26 233.163 173.924L234.171 177.956ZM235.229 166.4C235.229 162.2 236.153 158.972 238.001 156.716C239.849 154.436 242.489 153.296 245.921 153.296C247.721 153.296 249.293 153.608 250.637 154.232C251.981 154.856 253.097 155.744 253.985 156.896C254.873 158.048 255.533 159.428 255.965 161.036C256.397 162.644 256.613 164.432 256.613 166.4C256.613 170.6 255.677 173.84 253.805 176.12C251.957 178.376 249.329 179.504 245.921 179.504C244.097 179.504 242.513 179.192 241.169 178.568C239.825 177.944 238.709 177.056 237.821 175.904C236.957 174.752 236.309 173.372 235.877 171.764C235.445 170.156 235.229 168.368 235.229 166.4ZM240.413 166.4C240.413 167.672 240.521 168.848 240.737 169.928C240.953 170.984 241.277 171.896 241.709 172.664C242.165 173.432 242.741 174.032 243.437 174.464C244.133 174.896 244.961 175.112 245.921 175.112C247.673 175.112 249.029 174.428 249.989 173.06C250.949 171.692 251.429 169.472 251.429 166.4C251.429 165.176 251.321 164.036 251.105 162.98C250.913 161.924 250.601 161 250.169 160.208C249.737 159.416 249.173 158.804 248.477 158.372C247.781 157.916 246.929 157.688 245.921 157.688C244.169 157.688 242.813 158.396 241.853 159.812C240.893 161.204 240.413 163.4 240.413 166.4Z" fill="white"/>
</g>
</g>
<rect x="0.5" y="0.5" width="297" height="231" rx="4.5" stroke="#7B61FF" stroke-dasharray="10 5"/>
</g>
<defs>
<filter id="filter0_d_336_45" x="-27" y="1" width="363" height="182" filterUnits="userSpaceOnUse" color-interpolation-filters="sRGB">
<feFlood flood-opacity="0" result="BackgroundImageFix"/>
<feColorMatrix in="SourceAlpha" type="matrix" values="0 0 0 0 0 0 0 0 0 0 0 0 0 0 0 0 0 0 127 0" result="hardAlpha"/>
<feOffset dx="2" dy="30"/>
<feGaussianBlur stdDeviation="24.5"/>
<feComposite in2="hardAlpha" operator="out"/>
<feColorMatrix type="matrix" values="0 0 0 0 0 0 0 0 0 0 0 0 0 0 0 0 0 0 0.17 0"/>
<feBlend mode="normal" in2="BackgroundImageFix" result="effect1_dropShadow_336_45"/>
<feBlend mode="normal" in="SourceGraphic" in2="effect1_dropShadow_336_45" result="shape"/>
</filter>
<filter id="filter1_d_336_45" x="-27" y="107" width="363" height="181" filterUnits="userSpaceOnUse" color-interpolation-filters="sRGB">
<feFlood flood-opacity="0" result="BackgroundImageFix"/>
<feColorMatrix in="SourceAlpha" type="matrix" values="0 0 0 0 0 0 0 0 0 0 0 0 0 0 0 0 0 0 127 0" result="hardAlpha"/>
<feOffset dx="2" dy="30"/>
<feGaussianBlur stdDeviation="24.5"/>
<feComposite in2="hardAlpha" operator="out"/>
<feColorMatrix type="matrix" values="0 0 0 0 0 0 0 0 0 0 0 0 0 0 0 0 0 0 0.17 0"/>
<feBlend mode="normal" in2="BackgroundImageFix" result="effect1_dropShadow_336_45"/>
<feBlend mode="normal" in="SourceGraphic" in2="effect1_dropShadow_336_45" result="shape"/>
</filter>
<clipPath id="clip0_336_45">
<rect width="298" height="232" rx="5" fill="white"/>
</clipPath>
</defs>
</svg>
