<svg width="214" height="174" viewBox="0 0 214 174" fill="none" xmlns="http://www.w3.org/2000/svg">
<g id="SOBRE">
<g clip-path="url(#clip0_336_131)">
<g id="SOBRE=LIGADO" filter="url(#filter0_d_336_131)">
<path d="M20 48.5C20 32.7599 32.7599 20 48.5 20H165.5C181.24 20 194 32.7599 194 48.5C194 64.2401 181.24 77 165.5 77H48.5C32.7599 77 20 64.2401 20 48.5Z" fill="white"/>
<path id="SOBRE_2" d="M80.7075 55.488C80.7075 54.976 80.5155 54.56 80.1315 54.24C79.7635 53.92 79.2915 53.632 78.7155 53.376C78.1555 53.104 77.5395 52.832 76.8675 52.56C76.2115 52.272 75.5955 51.928 75.0195 51.528C74.4595 51.112 73.9875 50.6 73.6035 49.992C73.2355 49.384 73.0515 48.608 73.0515 47.664C73.0515 46.848 73.1875 46.144 73.4595 45.552C73.7315 44.944 74.1155 44.44 74.6115 44.04C75.1235 43.64 75.7235 43.344 76.4115 43.152C77.0995 42.96 77.8675 42.864 78.7155 42.864C79.6915 42.864 80.6115 42.952 81.4755 43.128C82.3395 43.288 83.0515 43.528 83.6115 43.848L82.5795 46.608C82.2275 46.384 81.6995 46.184 80.9955 46.008C80.2915 45.816 79.5315 45.72 78.7155 45.72C77.9475 45.72 77.3555 45.872 76.9395 46.176C76.5395 46.48 76.3395 46.888 76.3395 47.4C76.3395 47.88 76.5235 48.28 76.8915 48.6C77.2755 48.92 77.7475 49.216 78.3075 49.488C78.8835 49.76 79.4995 50.04 80.1555 50.328C80.8275 50.616 81.4435 50.968 82.0035 51.384C82.5795 51.784 83.0515 52.288 83.4195 52.896C83.8035 53.488 83.9955 54.232 83.9955 55.128C83.9955 56.024 83.8435 56.8 83.5395 57.456C83.2515 58.096 82.8355 58.632 82.2915 59.064C81.7635 59.496 81.1155 59.816 80.3475 60.024C79.5955 60.232 78.7635 60.336 77.8515 60.336C76.6515 60.336 75.5955 60.224 74.6835 60C73.7715 59.776 73.0995 59.552 72.6675 59.328L73.7235 56.52C73.8995 56.616 74.1235 56.72 74.3955 56.832C74.6835 56.944 75.0035 57.048 75.3555 57.144C75.7075 57.24 76.0755 57.32 76.4595 57.384C76.8595 57.448 77.2675 57.48 77.6835 57.48C78.6595 57.48 79.4035 57.32 79.9155 57C80.4435 56.664 80.7075 56.16 80.7075 55.488ZM85.6581 51.6C85.6581 48.8 86.2741 46.648 87.5061 45.144C88.7381 43.624 90.4981 42.864 92.7861 42.864C93.9861 42.864 95.0341 43.072 95.9301 43.488C96.8261 43.904 97.5701 44.496 98.1621 45.264C98.7541 46.032 99.1941 46.952 99.4821 48.024C99.7701 49.096 99.9141 50.288 99.9141 51.6C99.9141 54.4 99.2901 56.56 98.0421 58.08C96.8101 59.584 95.0581 60.336 92.7861 60.336C91.5701 60.336 90.5141 60.128 89.6181 59.712C88.7221 59.296 87.9781 58.704 87.3861 57.936C86.8101 57.168 86.3781 56.248 86.0901 55.176C85.8021 54.104 85.6581 52.912 85.6581 51.6ZM89.1141 51.6C89.1141 52.448 89.1861 53.232 89.3301 53.952C89.4741 54.656 89.6901 55.264 89.9781 55.776C90.2821 56.288 90.6661 56.688 91.1301 56.976C91.5941 57.264 92.1461 57.408 92.7861 57.408C93.9541 57.408 94.8581 56.952 95.4981 56.04C96.1381 55.128 96.4581 53.648 96.4581 51.6C96.4581 50.784 96.3861 50.024 96.2421 49.32C96.1141 48.616 95.9061 48 95.6181 47.472C95.3301 46.944 94.9541 46.536 94.4901 46.248C94.0261 45.944 93.4581 45.792 92.7861 45.792C91.6181 45.792 90.7141 46.264 90.0741 47.208C89.4341 48.136 89.1141 49.6 89.1141 51.6ZM113.568 47.112C113.568 47.528 113.512 47.944 113.4 48.36C113.304 48.776 113.136 49.16 112.896 49.512C112.656 49.848 112.344 50.152 111.96 50.424C111.576 50.68 111.112 50.872 110.568 51V51.144C111.048 51.224 111.504 51.36 111.936 51.552C112.368 51.744 112.744 52.008 113.064 52.344C113.384 52.68 113.632 53.088 113.808 53.568C114 54.048 114.096 54.616 114.096 55.272C114.096 56.136 113.912 56.888 113.544 57.528C113.176 58.152 112.68 58.664 112.056 59.064C111.448 59.464 110.752 59.76 109.968 59.952C109.184 60.144 108.376 60.24 107.544 60.24C107.272 60.24 106.92 60.24 106.488 60.24C106.072 60.24 105.616 60.224 105.12 60.192C104.64 60.176 104.144 60.144 103.632 60.096C103.136 60.048 102.68 59.976 102.264 59.88V43.32C102.568 43.272 102.912 43.224 103.296 43.176C103.696 43.128 104.12 43.088 104.568 43.056C105.016 43.024 105.472 43 105.936 42.984C106.416 42.968 106.888 42.96 107.352 42.96C108.136 42.96 108.896 43.024 109.632 43.152C110.384 43.264 111.048 43.472 111.624 43.776C112.216 44.08 112.688 44.504 113.04 45.048C113.392 45.592 113.568 46.28 113.568 47.112ZM107.568 57.528C107.968 57.528 108.352 57.48 108.72 57.384C109.104 57.288 109.44 57.144 109.728 56.952C110.016 56.744 110.248 56.488 110.424 56.184C110.6 55.88 110.688 55.52 110.688 55.104C110.688 54.576 110.584 54.16 110.376 53.856C110.168 53.552 109.896 53.32 109.56 53.16C109.224 52.984 108.848 52.872 108.432 52.824C108.016 52.776 107.6 52.752 107.184 52.752H105.432V57.384C105.512 57.416 105.64 57.44 105.816 57.456C105.992 57.472 106.176 57.488 106.368 57.504C106.576 57.504 106.784 57.512 106.992 57.528C107.216 57.528 107.408 57.528 107.568 57.528ZM106.488 50.256C106.712 50.256 106.968 50.248 107.256 50.232C107.56 50.216 107.808 50.192 108 50.16C108.608 49.968 109.128 49.68 109.56 49.296C110.008 48.912 110.232 48.408 110.232 47.784C110.232 47.368 110.152 47.024 109.992 46.752C109.832 46.48 109.616 46.264 109.344 46.104C109.088 45.944 108.792 45.832 108.456 45.768C108.12 45.704 107.768 45.672 107.4 45.672C106.984 45.672 106.6 45.68 106.248 45.696C105.896 45.712 105.624 45.736 105.432 45.768V50.256H106.488ZM116.444 43.368C116.812 43.304 117.204 43.248 117.62 43.2C118.052 43.136 118.476 43.088 118.892 43.056C119.324 43.024 119.74 43 120.14 42.984C120.54 42.968 120.908 42.96 121.244 42.96C122.028 42.96 122.796 43.032 123.548 43.176C124.316 43.32 124.996 43.568 125.588 43.92C126.196 44.272 126.676 44.76 127.028 45.384C127.396 45.992 127.58 46.76 127.58 47.688C127.58 49.064 127.26 50.184 126.62 51.048C125.98 51.912 125.124 52.512 124.052 52.848L125.228 53.592L129.068 60H125.276L121.46 53.424L119.732 53.112V60H116.444V43.368ZM121.484 45.888C121.148 45.888 120.812 45.896 120.476 45.912C120.156 45.928 119.908 45.96 119.732 46.008V50.88H121.124C122.036 50.88 122.764 50.672 123.308 50.256C123.852 49.84 124.124 49.152 124.124 48.192C124.124 47.472 123.9 46.912 123.452 46.512C123.004 46.096 122.348 45.888 121.484 45.888ZM130.881 43.2H140.841V46.128H134.169V50.04H140.241V52.968H134.169V57.072H140.961V60H130.881V43.2Z" fill="#EE7302"/>
</g>
<g id="SOBRE=ONHOVER" filter="url(#filter1_d_336_131)">
<path d="M20 125.5C20 109.76 32.7599 97 48.5 97H165.5C181.24 97 194 109.76 194 125.5C194 141.24 181.24 154 165.5 154H48.5C32.7599 154 20 141.24 20 125.5Z" fill="#EE7302"/>
<path id="SOBRE_3" d="M80.7075 132.488C80.7075 131.976 80.5155 131.56 80.1315 131.24C79.7635 130.92 79.2915 130.632 78.7155 130.376C78.1555 130.104 77.5395 129.832 76.8675 129.56C76.2115 129.272 75.5955 128.928 75.0195 128.528C74.4595 128.112 73.9875 127.6 73.6035 126.992C73.2355 126.384 73.0515 125.608 73.0515 124.664C73.0515 123.848 73.1875 123.144 73.4595 122.552C73.7315 121.944 74.1155 121.44 74.6115 121.04C75.1235 120.64 75.7235 120.344 76.4115 120.152C77.0995 119.96 77.8675 119.864 78.7155 119.864C79.6915 119.864 80.6115 119.952 81.4755 120.128C82.3395 120.288 83.0515 120.528 83.6115 120.848L82.5795 123.608C82.2275 123.384 81.6995 123.184 80.9955 123.008C80.2915 122.816 79.5315 122.72 78.7155 122.72C77.9475 122.72 77.3555 122.872 76.9395 123.176C76.5395 123.48 76.3395 123.888 76.3395 124.4C76.3395 124.88 76.5235 125.28 76.8915 125.6C77.2755 125.92 77.7475 126.216 78.3075 126.488C78.8835 126.76 79.4995 127.04 80.1555 127.328C80.8275 127.616 81.4435 127.968 82.0035 128.384C82.5795 128.784 83.0515 129.288 83.4195 129.896C83.8035 130.488 83.9955 131.232 83.9955 132.128C83.9955 133.024 83.8435 133.8 83.5395 134.456C83.2515 135.096 82.8355 135.632 82.2915 136.064C81.7635 136.496 81.1155 136.816 80.3475 137.024C79.5955 137.232 78.7635 137.336 77.8515 137.336C76.6515 137.336 75.5955 137.224 74.6835 137C73.7715 136.776 73.0995 136.552 72.6675 136.328L73.7235 133.52C73.8995 133.616 74.1235 133.72 74.3955 133.832C74.6835 133.944 75.0035 134.048 75.3555 134.144C75.7075 134.24 76.0755 134.32 76.4595 134.384C76.8595 134.448 77.2675 134.48 77.6835 134.48C78.6595 134.48 79.4035 134.32 79.9155 134C80.4435 133.664 80.7075 133.16 80.7075 132.488ZM85.6581 128.6C85.6581 125.8 86.2741 123.648 87.5061 122.144C88.7381 120.624 90.4981 119.864 92.7861 119.864C93.9861 119.864 95.0341 120.072 95.9301 120.488C96.8261 120.904 97.5701 121.496 98.1621 122.264C98.7541 123.032 99.1941 123.952 99.4821 125.024C99.7701 126.096 99.9141 127.288 99.9141 128.6C99.9141 131.4 99.2901 133.56 98.0421 135.08C96.8101 136.584 95.0581 137.336 92.7861 137.336C91.5701 137.336 90.5141 137.128 89.6181 136.712C88.7221 136.296 87.9781 135.704 87.3861 134.936C86.8101 134.168 86.3781 133.248 86.0901 132.176C85.8021 131.104 85.6581 129.912 85.6581 128.6ZM89.1141 128.6C89.1141 129.448 89.1861 130.232 89.3301 130.952C89.4741 131.656 89.6901 132.264 89.9781 132.776C90.2821 133.288 90.6661 133.688 91.1301 133.976C91.5941 134.264 92.1461 134.408 92.7861 134.408C93.9541 134.408 94.8581 133.952 95.4981 133.04C96.1381 132.128 96.4581 130.648 96.4581 128.6C96.4581 127.784 96.3861 127.024 96.2421 126.32C96.1141 125.616 95.9061 125 95.6181 124.472C95.3301 123.944 94.9541 123.536 94.4901 123.248C94.0261 122.944 93.4581 122.792 92.7861 122.792C91.6181 122.792 90.7141 123.264 90.0741 124.208C89.4341 125.136 89.1141 126.6 89.1141 128.6ZM113.568 124.112C113.568 124.528 113.512 124.944 113.4 125.36C113.304 125.776 113.136 126.16 112.896 126.512C112.656 126.848 112.344 127.152 111.96 127.424C111.576 127.68 111.112 127.872 110.568 128V128.144C111.048 128.224 111.504 128.36 111.936 128.552C112.368 128.744 112.744 129.008 113.064 129.344C113.384 129.68 113.632 130.088 113.808 130.568C114 131.048 114.096 131.616 114.096 132.272C114.096 133.136 113.912 133.888 113.544 134.528C113.176 135.152 112.68 135.664 112.056 136.064C111.448 136.464 110.752 136.76 109.968 136.952C109.184 137.144 108.376 137.24 107.544 137.24C107.272 137.24 106.92 137.24 106.488 137.24C106.072 137.24 105.616 137.224 105.12 137.192C104.64 137.176 104.144 137.144 103.632 137.096C103.136 137.048 102.68 136.976 102.264 136.88V120.32C102.568 120.272 102.912 120.224 103.296 120.176C103.696 120.128 104.12 120.088 104.568 120.056C105.016 120.024 105.472 120 105.936 119.984C106.416 119.968 106.888 119.96 107.352 119.96C108.136 119.96 108.896 120.024 109.632 120.152C110.384 120.264 111.048 120.472 111.624 120.776C112.216 121.08 112.688 121.504 113.04 122.048C113.392 122.592 113.568 123.28 113.568 124.112ZM107.568 134.528C107.968 134.528 108.352 134.48 108.72 134.384C109.104 134.288 109.44 134.144 109.728 133.952C110.016 133.744 110.248 133.488 110.424 133.184C110.6 132.88 110.688 132.52 110.688 132.104C110.688 131.576 110.584 131.16 110.376 130.856C110.168 130.552 109.896 130.32 109.56 130.16C109.224 129.984 108.848 129.872 108.432 129.824C108.016 129.776 107.6 129.752 107.184 129.752H105.432V134.384C105.512 134.416 105.64 134.44 105.816 134.456C105.992 134.472 106.176 134.488 106.368 134.504C106.576 134.504 106.784 134.512 106.992 134.528C107.216 134.528 107.408 134.528 107.568 134.528ZM106.488 127.256C106.712 127.256 106.968 127.248 107.256 127.232C107.56 127.216 107.808 127.192 108 127.16C108.608 126.968 109.128 126.68 109.56 126.296C110.008 125.912 110.232 125.408 110.232 124.784C110.232 124.368 110.152 124.024 109.992 123.752C109.832 123.48 109.616 123.264 109.344 123.104C109.088 122.944 108.792 122.832 108.456 122.768C108.12 122.704 107.768 122.672 107.4 122.672C106.984 122.672 106.6 122.68 106.248 122.696C105.896 122.712 105.624 122.736 105.432 122.768V127.256H106.488ZM116.444 120.368C116.812 120.304 117.204 120.248 117.62 120.2C118.052 120.136 118.476 120.088 118.892 120.056C119.324 120.024 119.74 120 120.14 119.984C120.54 119.968 120.908 119.96 121.244 119.96C122.028 119.96 122.796 120.032 123.548 120.176C124.316 120.32 124.996 120.568 125.588 120.92C126.196 121.272 126.676 121.76 127.028 122.384C127.396 122.992 127.58 123.76 127.58 124.688C127.58 126.064 127.26 127.184 126.62 128.048C125.98 128.912 125.124 129.512 124.052 129.848L125.228 130.592L129.068 137H125.276L121.46 130.424L119.732 130.112V137H116.444V120.368ZM121.484 122.888C121.148 122.888 120.812 122.896 120.476 122.912C120.156 122.928 119.908 122.96 119.732 123.008V127.88H121.124C122.036 127.88 122.764 127.672 123.308 127.256C123.852 126.84 124.124 126.152 124.124 125.192C124.124 124.472 123.9 123.912 123.452 123.512C123.004 123.096 122.348 122.888 121.484 122.888ZM130.881 120.2H140.841V123.128H134.169V127.04H140.241V129.968H134.169V134.072H140.961V137H130.881V120.2Z" fill="white"/>
</g>
</g>
<rect x="0.5" y="0.5" width="213" height="173" rx="4.5" stroke="#7B61FF" stroke-dasharray="10 5"/>
</g>
<defs>
<filter id="filter0_d_336_131" x="-27" y="1" width="272" height="155" filterUnits="userSpaceOnUse" color-interpolation-filters="sRGB">
<feFlood flood-opacity="0" result="BackgroundImageFix"/>
<feColorMatrix in="SourceAlpha" type="matrix" values="0 0 0 0 0 0 0 0 0 0 0 0 0 0 0 0 0 0 127 0" result="hardAlpha"/>
<feOffset dx="2" dy="30"/>
<feGaussianBlur stdDeviation="24.5"/>
<feComposite in2="hardAlpha" operator="out"/>
<feColorMatrix type="matrix" values="0 0 0 0 0 0 0 0 0 0 0 0 0 0 0 0 0 0 0.17 0"/>
<feBlend mode="normal" in2="BackgroundImageFix" result="effect1_dropShadow_336_131"/>
<feBlend mode="normal" in="SourceGraphic" in2="effect1_dropShadow_336_131" result="shape"/>
</filter>
<filter id="filter1_d_336_131" x="-27" y="78" width="272" height="155" filterUnits="userSpaceOnUse" color-interpolation-filters="sRGB">
<feFlood flood-opacity="0" result="BackgroundImageFix"/>
<feColorMatrix in="SourceAlpha" type="matrix" values="0 0 0 0 0 0 0 0 0 0 0 0 0 0 0 0 0 0 127 0" result="hardAlpha"/>
<feOffset dx="2" dy="30"/>
<feGaussianBlur stdDeviation="24.5"/>
<feComposite in2="hardAlpha" operator="out"/>
<feColorMatrix type="matrix" values="0 0 0 0 0 0 0 0 0 0 0 0 0 0 0 0 0 0 0.17 0"/>
<feBlend mode="normal" in2="BackgroundImageFix" result="effect1_dropShadow_336_131"/>
<feBlend mode="normal" in="SourceGraphic" in2="effect1_dropShadow_336_131" result="shape"/>
</filter>
<clipPath id="clip0_336_131">
<rect width="214" height="174" rx="5" fill="white"/>
</clipPath>
</defs>
</svg>
