<svg xmlns="http://www.w3.org/2000/svg" viewBox="0 0 133.67 75.95"><defs><style>.cls-1{fill:#d3d3d3;stroke:#d3d3d3;stroke-miterlimit:10;stroke-width:2px;}</style></defs><g id="Camada_2" data-name="Camada 2"><g id="_3D" data-name="3D"><path id="AC" class="cls-1" d="M128.61,50.94l3.16,1.5-9.47,7.3h-2.49l-4.65,3.32-2.33,3.66-2.49-.83-4.31.66-2.83,4.32-3.15,2-5.82,1.83-.83-2.82-10.46-1-5.81.5L73,70.54l-7,2.82-3.32-2.49-2,1.33V51.27l.83-7.47-5,4-2.49,2.82-3.33,2.16L47.24,54.1H33l.66-2.16L29.47,44.8,22,43.3H14.69l4.65-6L19,35.5l-3.49-4.82-3.16-2.16L12,26.2,9.21,24.54,6.72,18.06l-2-1,1.17-3.15L1.4,10.25,1.07,6.43,5.89,5.27,4.23,2l20.42,8.47,40.86,10.3L75.64,26Z"/></g></g></svg>