<svg xmlns="http://www.w3.org/2000/svg" viewBox="0 0 57.9 33.03"><defs><style>.cls-1{fill:#d3d3d3;stroke:#d3d3d3;stroke-miterlimit:10;stroke-width:2px;}</style></defs><g id="Camada_2" data-name="Camada 2"><g id="_3D" data-name="3D"><path id="AL" class="cls-1" d="M56.39,2.54l-2.83,5-3.15,3.16-3.82,5.48-2.83,1.16-.49,2.16L40.44,23.3,36,27.45,34,31.1l-1-1.49L26.49,26,24.33,22.3l-5-2.16L18,18.48l-4-1-8.47-4L2.08,11.67,1.25,10,8.72,3.87,13.37,3l3,1.66,3.82,3.65,4.15,2L25.5,8.85l5.14.5,4.49-1.66L40.94,2l3.82-.33,1.5.83L50.57,1Z"/></g></g></svg>