<svg xmlns="http://www.w3.org/2000/svg" viewBox="0 0 312.87 218.63"><defs><style>.cls-1{fill:#d3d3d3;stroke:#d3d3d3;stroke-miterlimit:10;stroke-width:2px;}</style></defs><g id="Camada_2" data-name="Camada 2"><g id="_3D" data-name="3D"><path id="AM" class="cls-1" d="M267.5,37.07l.16,9.8,2.16,1.83-.17,3.82,2.49,2.32L275,56.17l.66,3,6,5.15,4.48,2.49,3,2.66,10.3,4.15L301,75.77l4.15,1.66.17,2.49,2,.83,2.16-1,2,1.83.34,2.16L305.19,98l-27.4,59.12L274.64,162l1.66,3.82,3.32,3.32,1,3.15-1.49,1.83-.33,3.82-2.49,3.16,1.16,5.31-2.82,10.3-1.33,1-54.64.5-2.16-1.49-3,3.32-4.31-2-.5-2.82-2.33-.5L204.89,191l-2.83-.17-3.32-5.48-3.15-1H184.3l-1,2.82-2.66,2.16-3.15.83v3.65l-1.33,2.49-2.66.5.33,4.32h-4.65L166,202.64l-4-.49-1.82,1.16-.67,3.49-2.16,3h-1.82L154.4,207l-4.81,3.49-3,.17-1.83,2-3.49-3h-8v2l-2,2.16-4.15,2-1.66,1.66-53-24.91L62.4,187.2,21.55,176.9,1.12,168.43l.67-3.82,1.49-1.82,6-4.15,2-.17,1.83-2.33-1.83-6.47,1.83-3.49L15.4,143l.5-4.32,1.5-3.66-.5-2.15,4.65-1.33L32,123.43l3.16-1.83,7-1.16,2.66.17,5-1.5,2,.33,3.16-4.15,3.49.67,3-1,4,3.65h3l1.49-2.49,5.32-28.73,4.48-25.24L78.84,59l-3.15-4.82-.34-4.32-5.48-3.32-2.15-2.49.49-13.29,3.49-.33,7-2.32,1.66,1.66,3.15-1.17.67-3-2.49-3L76.18,22l-4.48.33-.16-11.62,5-1.16,4.15.83h21.09L100.1,8l2.66-1.66,2,3.66,3.65-1.33,3.49-4.32,4.15-1,4.48,7.31.67,3L121,20.14l3.66-.83,8.47,7.63,5.31,1,6.81-4.48,3.65,1.82-1.16,2.66,2.49.83L152.41,25l2.49-.83.83-3.15,2-.17,3.33-2.33,2,.34,5.15-4.32,2.49.83,3.65-3.16L175,7.35l1-1.16,4.32-.5,2.49-2,3.65-1,.5-1.5,3.82,1,2.16,2.49,6.15,1.66-.17,4.15-1.33,2,3.16,3.65,3,10.63-1.66,1.16.83,3.49-1.32,5.31.83,2.66-1.17,1.49,1.66,4,2.16,2,1.17,5-3.66,3L206.05,58l5.15,3.49,2.66,4,4.81.67-.33-2.33,1.16-4.32.33-4.65,1.33-2.32,6.48-2.66L230.79,51l3.33,5.32,4-.5,3.65-2.49-1.49-3,1.49-5.15,3.33-6.48,1.82-1.66Z"/></g></g></svg>