<svg xmlns="http://www.w3.org/2000/svg" viewBox="0 0 89.57 102.93"><defs><style>.cls-1{fill:#fff;stroke:#d3d3d3;stroke-miterlimit:10;stroke-width:2px;}</style></defs><g id="Camada_2" data-name="Camada 2"><g id="_3D" data-name="3D"><path id="AP" class="cls-1" d="M79.26,43.12l1.49,3-2.49,1.16-1.33-2.15ZM52.35,101.58l-2.65.33-5.48-2-.83-3.66-2-.16V92.44l-2-1.66L39.57,88l-3.66-3.82-1.66.17-2.16-8L30.6,74l.33-5.31-5.48-4.65-1-3.32L21,55.41l-3.82.5-3.32-1.83-1.5-2.65-3.82-2L2,49.27,1,43l1.33-2.49L1.21,37,2.37,39.3H4.53l2,2,3,1.16L16,41.3l2.49-2.5,5,2L27,39.14l1.82,1.66,4.82,1.33,4.82-3.66,6-12.12V24.69l2.33-2,5.15-9.3,2.65-3.49,2.83-1.66,2-6.64L61.49,3.1l3,3.49,2.65,5-.33,9L69,28.34,70.29,31l3.32,10,3.66,6.81,2.15,1,3.66-.33,5,2.82.5,4.15L87.4,61.22l-5.82,4.16-3.48,4-2.66,4.82-3.16,3.65-2.49.33L67.3,81.32l-1.66.16-2.82,3.16-2.16,4.65-4.49,5-.33,4.82Z"/></g></g></svg>