<svg xmlns="http://www.w3.org/2000/svg" viewBox="0 0 166.35 182.47"><defs><style>.cls-1{fill:#fff;stroke:#d3d3d3;stroke-miterlimit:10;stroke-width:2px;}</style></defs><g id="Camada_2" data-name="Camada 2"><g id="_3D" data-name="3D"><path id="BA" class="cls-1" d="M149.84,15.6l.83,1.67,3.49,1.82-.5,3.66,1,2.65,3.49,4.32-1,5.65.17,4.65-2.66,1.33-4.15-.5-.83,2.65,4.81,7-.5,2L160.14,56l3.15-.67,1.33-.33-4.32,10-7.14,10.79-5.48,6L145,77.22l-3.82-1.83-.5,6.14-5.65,8.81,1.83,4.31-1,5.15,1.83,1-1.33,3.82-1.33,8.47.83,2.65.34,7.64,1.49,9,1,2.33-3.33,11-2.82,13.61-.16,4.16,1.16,6.14-2.16,2.82-4,2.66-3.15,6-9.63-6.64.49-3-5.31-4.82-1.66-8,1.83-4.82,3.15.17.67-5.81,2.15-.34,1.5-2.82,2.16-1.83,1.33-3.32-6.48-5.48-7.81-2-5.81-.5-3,1.66-3.15-1.16-.5-4.15-8-7.14-5.15,1.33-9.63-4.49-6-4.81-4.32-.83-5,3-6.64-2.33-.33-2,1.49-4-3.49-1.16-6.14-.5-4,1.66-4.81,3.16-.83,1.66-6,2.32-4.15,3.82h-2L16,121.72l-3.32-.33L11,116.57l2-3.15-1-2.82.83-3.16-3.66-3.32-1.82-3.49-.83-6.48L8,89.67l1.83-1L8.19,86.18l.33-3,1.66-1.49-3-3.16,1.33-5.31L5.7,71.74l-.34-5.32L10,62.77,6.86,59.11l2.32-.83L8,55.63,3.87,55,1.21,52.14l3.32-6.48,2.66-2L5.86,41.51l4-3.32,5-2.82.83-1.66h2.82l2.33,2.82,2.65,5.31L28.28,44l3.82-.33,5.15-4.48,2.66-.83,3,.83,2.16-.83,3.66-3.82,2.65-3.66,1.17-3L52,23.24,50.2,17.43l2.16.33L54,15.6l2.82-.49,1.33,2,6-.33,3.49,2.82,6.48-1,2.65-3.15,3.32-.5,1.66-1.49,4.16.33,1.66-1.5v-3L90.89,9,94,4.48l3.66-.17,5,2.83L103,12l2.82,1.66,1.5,4.82,5.31-2.49,1-4.49h2.66L120.45,9l-.17-2.32,3.66-1,.16-2.32,5-2.16,3.33,2.65,6.31,1.66L145,8.63l3.48,3.16Z"/></g></g></svg>