<svg xmlns="http://www.w3.org/2000/svg" viewBox="0 0 77.61 92.86"><defs><style>.cls-1{fill:#fff;stroke:#d3d3d3;stroke-miterlimit:10;stroke-width:2px;}</style></defs><g id="Camada_2" data-name="Camada 2"><g id="_3D" data-name="3D"><path id="CE" class="cls-1" d="M76.11,37.38,70.8,39.2l-3.32,2.49-3.32,7-2.33,2.66-1.49,4.81-3,3.49L55,59.3l-3,4.15,1.17,1.66-4,10.3,1.49,3.81,2.5,2.5-3,5.64L47.05,89l-1.66,2.49-5-3L38.75,86.2,33.1,82.88l-3.49-.33-3.82,1-8.47-.33-.83-3.16,3-7.3-.83-1.16-4.48-1.67-1.33-6.31L11,58.47l-.83-10.3L8,46.18V43.35L5.87,38.87l-1-6.81,2.82-3.82L5,23.26,4,19.11l-3-6.64.5-2.16L4.7,4.83,4.21,2.34l6-.17L18.32,1l8.8.83L31.77,5l6.65,3,5,3.32,2.16.83,5.14,4.49,3.82.83,1.17,2.32,2.49,2,4,5,4.49,2.82,3,3.82,5,1.49Z"/></g></g></svg>