<svg xmlns="http://www.w3.org/2000/svg" viewBox="0 0 41.48 66.39"><defs><style>.cls-1{fill:#d3d3d3;stroke:#d3d3d3;stroke-miterlimit:10;stroke-width:2px;}</style></defs><g id="Camada_2" data-name="Camada 2"><g id="_3D" data-name="3D"><path id="ES" class="cls-1" d="M30.69,2.36,40.32,9l-1,3.65-.17,7.14.5,9.8L37.5,34.07l-3.49,2-2.65,5.31L31,44.2,29.2,45l-1,5.15L24.38,55l-3.49,2L19.4,61.48,17.24,65,15.58,63.8l-3.49.33L6.28,62.8,3.62,61.31l.17-4.15L1.13,55.5l2.49-11,6.48-.34,1.16-4.65,2.16-1.49.33-3.32,3.66-4.15.33-5.65-2-2.66,2.32-6.47-2-1,.5-3.82L14.09,8.33l3.65-3.48.5-2.49L27,1Z"/></g></g></svg>