<svg xmlns="http://www.w3.org/2000/svg" viewBox="0 0 133 133.39"><defs><style>.cls-1{fill:#fff;stroke:#d3d3d3;stroke-miterlimit:10;stroke-width:2px;}</style></defs><g id="Camada_2" data-name="Camada 2"><g id="_3D" data-name="3D"><path id="GO" class="cls-1" d="M126.08,7.6l3,3.16-1.66,1.49-.33,3,1.66,2.49-1.83,1-1.5,4.48.84,6.48,1.82,3.49,3.66,3.32-.83,3.15,1,2.83-2,3.15L128.57,47l-3.65-.5-3.66-3.65-1.33,1.83.5,4.15-3.82-.5-2.16.66-.83,7,1.17,3.15.49,5.15-8.13,3.16-1-1,.83-7.31-2-1.66-13.62-.33-1.66,6.48,1.66,3.82h15.78l-.5,3.65-2.33,4.82L107.81,79l2,5.32-3.32,4L103,93.63l4.31,1.82.5,2.16-1.66,3.49,1.33,4-5,2.83-1.66,2.16-4.32,2.32L90,110.56h-10l-2.49-.49-3.16,1.49-4.15,4.15L68,113.22l-5.32,2.49-3.49-.33-6,2-3.33,4.32-.33,3-2.16.17-3.48,3.48-2.16,3.33-2.66-3.49-3.16-.5-2.15-1.83-4.16-.66-7.3-3.49-2.16-1.83-3-.66-2.49-2-6.81-.5,1.49-4.32-5-3,.17-5.15L1,96.28l.83-5.81L4.68,86l1.5-4.15,2.66-1.33,3-3.82L11.49,72,14,69.21l3.32-1.82,2.33-2.83,5.48-1.49,3.32-6.15,1-4.81,2.49-2.82,3.49-2,2.65.5,1.17-1.66L41.72,39l-.5-2,1.33-5.15,1.16-.17v-7.3l5-8.47.17-4.16L50.35,8.6,51,5.78,54,2l1.32,3.15L54,7.44l.66,2.65,10,4.49,4.65,1.33,5-9.47,1.49-1L79.91,9.1l1,4,2,1.66,8.64-.16,9.3,3.15-1.33-3.15,5.15,1.33,6.14-2.83,5.65-.66,2.32-2.49Z"/></g></g></svg>