<svg xmlns="http://www.w3.org/2000/svg" viewBox="0 0 125.93 169"><defs><style>.cls-1{fill:#d3d3d3;stroke:#d3d3d3;stroke-miterlimit:10;stroke-width:2px;}</style></defs><g id="Camada_2" data-name="Camada 2"><g id="_3D" data-name="3D"><path id="MA" class="cls-1" d="M124.38,31.07l.5,3.49-3.49,5-3,3-5.14,1.33-3.49,3.49-1.33,4.48L104,57.14l.33,2.66,1.83,2.33-1.5,5,.83,1,1.83,5.82-.5,2.82L102,82.55l.5,7.48,4,3.48L106,99l-2.49,3.82-7.81,1.33-4-2.49L85,103l-4.31,5.64-2.83,1-3.65,3.16-4.48,2.16-6.65,1.82-3.48,2.33-1.5,5.15-.33,3.48L55,132.87l-.5,2.82-3,3.49-1,2.49L52,149l1.66,1.49-1,10.63-1.49,3v2.82l-2.49-2L44,164.09l-2.16-2.82-.34-2.49-3.32-2.33L40.68,153l-3.82-2.5-1.66-4.31-4.15-3.33L34,140l-.33-1.66,1.66-5,2-1,3.82-.16.33-8-1.66-1.17-5.14,1.17-2.66,1.49-4.82-6.81-3.65-4-.33-3-2.16-2.16,2.16-2.66,1.16-8.47,1.33-5.48-1-2.32.33-4.16-1.32-2.32-.5-4.48-8.64-4.65-2.82.49L8.47,74.08l-3.32.67L1.66,77.4l-.17-.16L18.1,63.79l2.66.33,4.81-6,1.66-3.49,4-4.31.66-4.82,1.5-3.16L35.7,41l2.66-4V30.57l4.32-4-.5-2.66,3-4,1-3V12.47l1.5-8.63,1-.5,5.64,1L55.13,2l4.32,5.31L61.61,8l.16,4.65L65.1,8.32l3.82.33,4.31,5.48,3.32.67.5,5.31,2.33,2.82-2.49,2-2.16,5.14-1.16,5.15,1.16,1,4-2.82,1.83-7.31,4.32-1.5.5,1.67-2,3.15,7.14-2.82,5.32.66-.5-3.65,2.82.16,10.8,3.66,3.49,3,4.48.66.5,1,5,.5Z"/></g></g></svg>