<svg xmlns="http://www.w3.org/2000/svg" viewBox="0 0 201.32 164.77"><defs><style>.cls-1{fill:#d3d3d3;stroke:#d3d3d3;stroke-miterlimit:10;stroke-width:2px;}</style></defs><g id="Camada_2" data-name="Camada 2"><g id="_3D" data-name="3D"><path id="MG" class="cls-1" d="M193.81,70.1l-3.65-1.33-8.8,1.33-.5,2.49-3.66,3.49,2.5,2.66-.5,3.82,2,1L178.87,90l2,2.66-.33,5.64-3.66,4.15-.33,3.33-2.16,1.49L173.22,112l-6.48.33-2.49,11-4,4.32-5,12,1.66,1.49-13.45,6.15-5.48-.5-2.16,1h-5.48l-5.81,2.16-2.16,1.5-4,.16-7,2.83-3.82,1.16-6.14,3.65-1.33-1-4.48,1-.17,2.66L93,163.1l-4.65.66-3.82-.33-1.16-6.64-4.32-2.16-1-2.16,1.5-6.14-1-3.33,3.32-5.64-.33-1.16-5.48-2L72.91,134l-4.15-8.64,2-4.48-.67-2.49-2.49-2,1-4.15-3.66-3.15H61.46L57.8,108,57,110.29l-12.12.33-5,.83-5.32,2.49-2.65-2.49-.17-2.66L27.41,107H21.27l-8.14-1-2-1.83L7.65,106.8l-4,1.5-2.15,2L1,103.81l1-5.48L4.16,95l3.49-3.49,2.16-.16.33-3,3.32-4.32,6-2,3.49.33,5.31-2.49,2.33,2.49,4.15-4.15,3.15-1.5,2.5.5h10l6.48,1.83,4.31-2.33,1.66-2.16,5-2.82-1.33-4,1.66-3.49-.5-2.16L63.28,60.3,66.77,55l3.32-4-2-5.31-3.49-3.16,2.33-4.81.49-3.66,8.14-3.15-.5-5.15-1.16-3.15.83-7L76.9,15l3.82.49-.5-4.15,1.33-1.82,3.65,3.65,3.66.5,1.33-1.33,1.66,4.81,3.32.34,3.32-3.82h2l4.15-3.82,6-2.33.83-1.66,4.82-3.15,4-1.66,6.15.49,3.49,1.17-1.5,4,.33,2L135.36,11l5-3,4.32.83,6,4.82,9.64,4.48,5.14-1.33,8,7.14.49,4.16L177,29.25l3-1.66,5.81.5,7.81,2,6.47,5.48-1.33,3.32-2.16,1.83-1.49,2.82-2.16.33-.66,5.81-3.16-.16-1.82,4.81,1.66,8,5.31,4.81Z"/></g></g></svg>