<svg xmlns="http://www.w3.org/2000/svg" viewBox="0 0 130.51 133.19"><defs><style>.cls-1{fill:#fff;stroke:#d3d3d3;stroke-miterlimit:10;stroke-width:2px;}</style></defs><g id="Camada_2" data-name="Camada 2"><g id="_3D" data-name="3D"><path id="MS" class="cls-1" d="M92.25,16.55l-.16,5.15,5,3L95.57,29l6.81.5,2.49,2,3,.66L110,34l7.31,3.49,4.15.66L123.64,40l3.15.5L129.45,44l-1,5.48.5,6.47-2.49,3.82L123,60.89l-5.14,6.31-.17,3.49-4.48,5.65.33,3.32-4.32,4,1.16,2.15-4.65,5-1.33,3.32-8.3,6.14-2.32.83-3.66,4.65-5.48,2.49-2.16,1.66-.66,3.66-2,4.32-3.49,1.82-2.16,7.64L74,130l-3,2-6.65-4.81-5.48,3-5,1.17-4.15-1.66-.17-3.82-1.49-2.66.33-4.32-2.66-11,.67-3.32-2.16-2-.17-2.33L41.6,98.09l-5.48-.49-4-4-2.83,2.32L24,97.76l-6.15-1.83L15,96.27l-8.3-1.33L4.24,92.78,5.9,86.14l-1-3.32,1.49-3,.34-6-1.17-3,.83-3-1.82-1.5L3.9,63.22,1.25,57.08l5.14-3.49L1.74,48.94,8.89,34l-1-.66L12,19.71,8.89,13.4V11.24l4.65,3.16,6.14-2.16,2.49-2.49,4-6.31,7.64-.5,4.81-1.83,4.82,3,2.82.5,1.66,2.32,6.48,3.49,5-.66L63,7.25l2.66-.16L69,10.24l3.66-1L79.3,2.44,81,2.27,79.8,9.58l-2,.83-2.15,3.82,4.48,2.16,7.64-.17Z"/></g></g></svg>