<svg xmlns="http://www.w3.org/2000/svg" viewBox="0 0 206.64 198.33"><defs><style>.cls-1{fill:#fff;stroke:#d3d3d3;stroke-miterlimit:10;stroke-width:2px;}</style></defs><g id="Camada_2" data-name="Camada 2"><g id="_3D" data-name="3D"><path id="MT" class="cls-1" d="M205,46.92l-3,5.65-.5,3.32L198.38,62l-.17,7-2.32,8.14,1.66,1.49-1,2.16,1,4.81-.33,4,1,4.32-.66,2.16,1,4.65,2,.83-1.5,3.15-.16,4.15-5,8.47v7.31l-1.16.17L191.4,130l.5,2-2.49,7.14-1.16,1.66-2.66-.5-3.49,2-2.49,2.83-1,4.81L175.29,156l-5.48,1.49-2.32,2.83-3.32,1.82L161.68,165l.33,4.65-3,3.82-2.66,1.33-1.49,4.15L152,183.43l-.83,5.81,3.49,8-4.48-.33-7.64.17-4.49-2.16,2.16-3.82,2-.83,1.16-7.31-1.66.17-6.64,6.81-3.66,1-3.32-3.15-2.66.16-3.65,2.49-5,.67-6.48-3.49-1.66-2.32-2.82-.5-4.82-3-4.81,1.82-7.64.5-4,6.31-2.49,2.49L76,195.05l-4.65-3.15-1.66-4-3-.16-4.32-3.33-2.66-1.32-1.66-7.31v-4.15l2-2.49.34-4.16-3.49.67-28.4-1-1-1-1-13.29-5.15-6.64,4.48-.83-.16-8.64-3.32-9.63,1.49-2.49-1.33-2.82-4.65-2.83,5.65-4,1-3.16,2.83-5.64,2-.67L34,93.25l-1.16-5-1.66-3.65-1.5-.33-.83-4.49,3.49-5.48L31,70.67,22.84,68,4.58,67.85,3.58,64l1-6-2-6,1.66-8.8L2.09,37.62l2.15-7.47L2.09,27.49,56.72,27l1.33-1,2.82-10.3-1.16-5.31L62.2,7.23l.33-3.82L64,1.58l2.82,3.49,3.49,9.47,2.49,3.15-.66,4,1.66,5.64L79,30.81l3.49,1.83.5,2.82,4.15,1.16,6.81,3.49,24.41,1.66,67.76,4.15Z"/></g></g></svg>