<svg xmlns="http://www.w3.org/2000/svg" viewBox="0 0 233.39 224.66"><defs><style>.cls-1{fill:#fff;stroke:#d3d3d3;stroke-miterlimit:10;stroke-width:2px;}</style></defs><g id="Camada_2" data-name="Camada 2"><g id="_3D" data-name="3D"><path id="PA" class="cls-1" d="M146.56,57.56l-.33,2.32-4.65,2V60.21l2.66-2.32Zm-7.14-.5,1.33,1.49-2.16,6.64L129.46,73l-3-.5,1.33-3.15,2.82-2,.83-5.14,2.49-3.66,4-2.16Zm20.26-7.48,7.81,1.83,4.15-.17,1.66-1.32,7.14.16.67.83,8.3.83,1,2-1.66,2.15-1.17,6.81-1.82,3.49-3,2.16-.83,4.48-6.81,3.33-2.66.33-2.32-1-2.66,3-3,1.16-4-2-2,1.16-4.48,1-3-.67-.17-2-2.82-2.66-1.16-3.32.5-2.82-.34-5,.34-4.49,2.32-7,5-3Zm-14.28,3-2.49-2.49,1.5-2.82,3.32-1,2.16,3Zm25.08-6.64,2.16.66-1.33,2.66-5,.5L168,46.1Zm-.67-4.15-3,1.83-2.5,3.32-3.15,1.16-1.5-1.5-3.65.34-1.33-3.66,4.65-.16,1.33-1.33h3.16l3.82-1.5Zm-14.61-4,.33,4.32-2.65.17.66-4.65Zm5.48-1.16L160.51,38l-4.15,2.82.67-4.15ZM76.15,3.25l1.16,3.49L76,9.23l1,6.31,6.48.17,3.82,2,1.49,2.66,3.32,1.82,3.82-.5L99.4,27l1,3.32L105.88,35l-.33,5.31L107,42.61l2.16,8,1.66-.17,3.65,3.82-.16,2.83,2,1.66v3.65l2,.17.83,3.65,5.48,2,2.66-.33-.17,3-2.65,1.33-3.16-1-6,3.16,2.66.83,2.66-1,2.16,2.16,3.48-.66,5.15-3.49,7-3,4.48-3.49.67-2.16h3l-1.49,3.66,1.66,2v3.65l2.33,3L151.21,81l1.83.5,7.81-1.83,5.31,1.66,4.65-2.65L172.47,81l-1.33,5.15,2.16.33,3.66-7.8,2.82-3,2.66.49,3.15-4.31,1.83,3.48,1-5.31,2.49.66,1.17-3.48,2.49-4L194.23,61l3.65-.66,4-1.83,4.65,1.66,3.32-2.32,7,4.15,7.14.66.33,2.66,3,.17,1.33,2,2.49,1.16-1,.5-1.5,8.64V82.3l-1,3-3,4,.49,2.66-4.31,4v6.47l-2.66,4-2.32,1.33-1.5,3.15-.66,4.82-4,4.32L208,123.48l-4.82,6-2.65-.33-16.61,13.45.17.17,3,1.16,2.82-.5,4.65,4.65-2.82,1.5,1.16,2.82-2,1.66,1,2-2.66,1.33-1.16,3.32-3,3.32-.33,2.33-5.81,2-3.32,2.16.16,6-3.32,4.82v2.65l3.49,2.49-.33,5-2,5.81-1.32,1-3.49,7.15-3.16,1.49-5.31,7.31-1,4.31-2.16,5.15-18.93-1-67.75-4.16-24.42-1.66-6.8-3.48-4.16-1.17-.49-2.82-3.49-1.83L26,204l-1.66-5.65.66-4-2.49-3.16L19,181.77l-2.82-3.48-1-3.16-3.33-3.32L10.22,168l3.16-4.82,27.4-59.12,6.64-14.28-.33-2.16-2-1.82-2.16,1L41,86l-.17-2.49L36.63,81.8,35,79.64l-10.3-4.15-3-2.66L17.2,70.34l-6-5.15-.66-3L7.73,60.88,5.24,58.55l.17-3.82L3.25,52.91l-.17-9.8L1.26,23.68l2.15,2.16,3-1.66,3,.33V21.35l3.66-2.82L18.19,20l1.5-2.15,2.66-1.17h4l4-4.65,4.31-1,1.67,1.82,3.82.83,3.15-1,5.15.16,5.48,1.5,1.83-.83V10.72L53.23,7.4l1.17-5,4.81,2L65,3.75l1.82-1.5L71.5,1.09l2.83,2.33Z"/></g></g></svg>