<svg xmlns="http://www.w3.org/2000/svg" viewBox="0 0 122.1 42.35"><defs><style>.cls-1{fill:#d3d3d3;stroke:#d3d3d3;stroke-miterlimit:10;stroke-width:2px;}</style></defs><g id="Camada_2" data-name="Camada 2"><g id="_3D" data-name="3D"><path id="PE" class="cls-1" d="M119.18,5.92l1.66,1.32-1.66,3.33,1.49,1.82-2.32,8.14L114.7,30.66l-5.82-1.5-4.31,1.5-1.5-.83-3.82.33-5.81,5.65L89,37.47,83.81,37l-1.17,1.49-4.15-2-3.82-3.65-3-1.66L67,32l-7.47,6.14-1.33-3.82-3.48-3.15L48.43,28l-6.31-1.66L38.8,23.68l-5,2.16-.17,2.33-3.65,1,.17,2.33L26,34H23.36l-1,4.48L17.05,41l-1.5-4.82-2.82-1.66-.33-4.82-5-2.82L3.76,27l8-5,6-5.81.83-4.81L16.38,9.73l.67-2.15L15.88,3.76l2.66-.67L27,3.42l3.82-1,3.49.33L40,6.08l1.67,2.33,5,3,1.66-2.5,3.15-1.66L54.74,9.9l2.83-1.16,1.82,2.66,1.67-1.33,4-.67,4-3.48,2.82-1.17,2-2.49L77,1.1l3.49,2,1,2.16L78,6.58l.67,3.15-2,3,2.49,1L79.32,17l3.49,2.16L85.47,18l2.82-2.49,1-2.83,2.65-1.82h8.47l1-1,6-2,1-3.66,3.82-1.16,4,.33Z"/></g></g></svg>