<svg xmlns="http://www.w3.org/2000/svg" viewBox="0 0 101.48 149.22"><defs><style>.cls-1{fill:#d3d3d3;stroke:#d3d3d3;stroke-miterlimit:10;stroke-width:2px;}</style></defs><g id="Camada_2" data-name="Camada 2"><g id="_3D" data-name="3D"><path id="PI" class="cls-1" d="M85.57,6.38l-3.16,5.48L81.91,14l3,6.64,1,4.15,2.66,5-2.83,3.82,1,6.81,2.16,4.48v2.83l2.16,2L91.88,60l1.83,5.15L95,71.48l4.49,1.66.83,1.16-3,7.31.83,3.15-2.66.67,1.16,3.81L96,91.4l2.16,1.66-.83,4.82-6,5.81-8,5-3.16,4.49-3.32.33v3L75.27,118l-4.15-.33-1.66,1.5-3.32.5-2.66,3.15-6.48,1L53.52,121l-6,.34-1.33-2-2.82.5L41.73,122l-2.16-.33,1.82,5.81.5,4.65-1.16,3-2.66,3.65-3.65,3.82-2.16.83-3-.83-2.66.83-5.14,4.49-3.82.33L12.83,146l-2.66-5.31L7.85,137.9H5l-3.33-.16v-2.83l1.5-3,1-10.62-1.67-1.5L1,112.49,2,110l3-3.48.49-2.83,2.83-5.15.33-3.48,1.49-5.15,3.49-2.33,6.64-1.82,4.49-2.16,3.65-3.16,2.82-1,4.32-5.65,6.64-1.33,4,2.49L54,73.63l2.49-3.81L57,64.33l-4-3.48-.5-7.48,4.82-5.81.49-2.82L56,38.93l-.83-1,1.49-5-1.82-2.33L54.51,28,59,22.65l1.33-4.48,3.48-3.49L69,13.35l3-3,3.49-5-.5-3.49,4.32,2.49,4.65.34Z"/></g></g></svg>