<svg xmlns="http://www.w3.org/2000/svg" viewBox="0 0 118.98 83.59"><defs><style>.cls-1{fill:#fff;stroke:#d3d3d3;stroke-miterlimit:10;stroke-width:2px;}</style></defs><g id="Camada_2" data-name="Camada 2"><g id="_3D" data-name="3D"><path id="PR" class="cls-1" d="M117.45,55.19l-4.65.33-3.32,3.82,1.66,2.16-2.66,7.14-9.63.17-8.14,4.65-6.47-4.15-12.63,1-3.32,3.82L64,73.62l-3.82,3.82,1,3.66-2.82,1.33-2-1.5-9.14-.5-2.82-2.32-5.15-.67-6.31-1.82-5.31.66-4.32-2.49-2.49,1-3-.67-3-6.14L13.49,61.5,8,59.67,3.69,61.83,1.37,60,1,57.68l3.15-6-.66-1.49L6.18,41.9l1-5.81L5.85,32.44l1.66-1.83,3-2L10.67,26l2.16-7.64,3.48-1.82,2-4.32L19,8.53l2.16-1.67,5.48-2.49,4-2.65,7.64,1,9-1.66,2.49,1.5L56.34,4l2.82-.66L63.31,5.7l4.15,1,1.83,2.49,7-.66,1.83.66,4.65-.66,2.82,2.82,2.5.83,2.15,5.65L89.38,20l1.83,4-.83,3.32,4.82,5.15,1.82,4-1.33,6.32,12.13.16,3.65,5.48,3.32,1.16Z"/></g></g></svg>