<svg xmlns="http://www.w3.org/2000/svg" viewBox="0 0 71.92 52.77"><defs><style>.cls-1{fill:#fff;stroke:#d3d3d3;stroke-miterlimit:10;stroke-width:2px;}</style></defs><g id="Camada_2" data-name="Camada 2"><g id="_3D" data-name="3D"><path id="RJ" class="cls-1" d="M70.71,10.75,68.88,15.4l1.83,8.14-.5,1.33-4.49,2.49L58.25,30l-6,6.31,1.16,3.15L51.28,43l-5.65-.33-11.79.83-.83-6L29.69,39l1.82,3-1,1.83-7.31.66-4.15-2.32L15.4,43l-2.15,2-3-2.32L4.94,44.8l-1.33,6-2.49-2.5,1.33-4.65,3.66-2.15,4.15-.34L13.74,38l-1.32-1.83H5.11L1.79,32.34l7-2.82,4-.17,2.16-1.49,5.81-2.16H26.2l2.16-1,5.48.5,13.45-6.14-1.66-1.5,5-12,4-4.31L57.25,3,57.09,7.1l2.65,1.49,5.82,1.33L69,9.59Z"/></g></g></svg>