<svg xmlns="http://www.w3.org/2000/svg" viewBox="0 0 67.28 40.85"><defs><style>.cls-1{fill:#d3d3d3;stroke:#d3d3d3;stroke-miterlimit:10;stroke-width:2px;}</style></defs><g id="Camada_2" data-name="Camada 2"><g id="_3D" data-name="3D"><path id="RN" class="cls-1" d="M66,31.09l-1.33.66-5.81-.5-5.31-1.49-4.65.66-6-.83-.66-2-3.66,1.5-1.16,9.46-2.66,1L33.44,35.9l-4.81-.16-3,1.16-2-2.32-3-.17,2.16-5.81,3.65-4.32L25,22.62l-8.8,2.66-.66,2.16-6,4-2.82-.17L2.39,28.93,1.23,27.27l3-4.15,2.32.33,3-3.49L11,15.15l2.33-2.66,3.32-7L20,3,25.31,1.2l1,1.49L31.45,3,35.1,5.85,42.41,6l5.15-1L55,6.34,57.86,8l2.82,4.81,3,12.79Z"/></g></g></svg>