<svg xmlns="http://www.w3.org/2000/svg" viewBox="0 0 127.81 105.01"><defs><style>.cls-1{fill:#fff;stroke:#d3d3d3;stroke-miterlimit:10;stroke-width:2px;}</style></defs><g id="Camada_2" data-name="Camada 2"><g id="_3D" data-name="3D"><path id="RO" class="cls-1" d="M94.87,14.78,97,17.44l-2.16,7.47L97,30.56l-1.66,8.8,2,6-1,6,1,3.82,18.26.16L123.77,58l1.33,3.65-3.49,5.49.83,4.48,1.5.33,1.66,3.65,1.16,5-4.65,9.79-2,.67-2.83,5.65-1,3.15-5.65,4-3-2-8.14-1.16-8.3,1-5.15-5.15-.16-2.16L80.26,94l-.5-1-5.64-1.16L70.3,88.68,68.8,85.2l-4.48,1-3-2.65-3-1.5-3.65-.16-1,1.32-8.64-1.49-1.16-3.65-4.48-2L38.08,73.9l-3.16-.33-1.66-4.65-2.49-.5-.33-3.82-2.32-2.32L27.28,58,29,55l-1.83-3.49-.67-6,2.83-4.82-1-4.32L29,34.21l-2.5-3L24,34.05l-4-1.5-5,.5L8.52,35l-3.65.5L1.71,34.05l1.66-1.66,4.15-2,2-2.15v-2h8l3.48,3,1.83-2,3-.17,4.82-3.48,1.16,2.82H33.6l2.15-3,.67-3.49,1.83-1.16,4,.5,3.16-1.5H50l-.34-4.31,2.66-.5,1.33-2.49V6.81L56.84,6,59.5,3.82,60.5,1H71.79L75,2l3.32,5.48,2.82.16,1.5,3.66,2.32.49.5,2.83,4.32,2,3-3.32Z"/></g></g></svg>