<svg xmlns="http://www.w3.org/2000/svg" viewBox="0 0 105.63 121.45"><defs><style>.cls-1{fill:#fff;stroke:#d3d3d3;stroke-miterlimit:10;stroke-width:2px;}</style></defs><g id="Camada_2" data-name="Camada 2"><g id="_3D" data-name="3D"><path id="RR" class="cls-1" d="M102.7,71.79l1.83,19.43H83.94l-1.83,1.66-3.32,6.48-1.5,5.14,1.5,3L75.13,110l-4,.49-3.32-5.31L64.67,104l-6.47,2.65L56.87,109l-.34,4.65L55.37,118l.33,2.32-4.81-.66-2.66-4-5.15-3.49L39.6,109l3.65-3-1.16-5-2.16-2-1.66-4,1.16-1.5-.83-2.65,1.33-5.32-.83-3.48,1.66-1.17-3-10.62-3.16-3.66,1.33-2,.17-4.15L30,58.84,27.8,56.35l-3.81-1V52H16l-3.82-.83L13,46.71l-4-7.3-.33-5.15.83-2.66L7.21,28.78,3.56,26.45,1.23,24l1.33-2.32,4-.5,4,.66,1.33,3.66,3.49-.67,4.48.17,2.66,1.33,3.32-1L31,30.94h3.65l.83-2.49-.83-2.83.83-2.32,3.33-.17,3.15-2.49,3.32,1.5,5.15-1,3-1.83,3.15.17,1-2.82L67,14.33l1.33-3,2.49-1,2.65-2.65-.83-4.82,5.82-.33,2.15-1.33,4.16,3.16L83.44,15l4.32.67L90.08,17l-1,3.32,3.66,4.32-2.66,4.48-2.82,1.66.16,4.15L85.1,40.57l-.67,6.64,1.5,5.65,3,2v5.31l3.15,4.32,5.82,6.15Z"/></g></g></svg>