<svg xmlns="http://www.w3.org/2000/svg" viewBox="0 0 143.75 139.36"><defs><style>.cls-1{fill:#fff;stroke:#d3d3d3;stroke-miterlimit:10;stroke-width:2px;}</style></defs><g id="Camada_2" data-name="Camada 2"><g id="_3D" data-name="3D"><path id="RS" class="cls-1" d="M141.88,45.6l-6,10L131.08,69l-7.3,12.13-7.64,9.13-7.31,6.15-5.31,3.32-3.16,3.65-.83-5.31,2.82.33,4-1.66,5.15-5.81,3-1,1.66-3.82-.33-2.82L119,81.14l.33-3,3.82-1.83,1.33-1.83L127.1,65l-6.48.83-4.15-1.33-2.82,7.81-1.5.49.17,5L111,82l-3.16,1-.66,2.66-4.82,1-1,5.64-4,3.16.5,3.65-1.49,3.16,2.82.5-5,8.8L92.56,118l-2.66,6.48-3.49,4.65-10,9-3-2,.66-11.8,3.49-2.82L80.93,117l-2.49-3.16-5.31-3.32-3.66-8.47-5.64-3.49-1.17.67-5.64-5-2.16-4.32-4.15-.67L42.9,85l-1.66-3.49L36.92,77,32.11,81.8l-2.83-.33L30,77.15,25.8,71.51l-3-2.16L18,64l-3.15-2.49-4.32.17L8,65.36l-5.32-.17L1.39,63.7,6,59.22l.33-2.83,3.48-1.66,7.64-9,1.83-4.15,3-1.49,2.16-5.32,2-1,5-5.81,2.49-4.16L36.76,21l3-.66,4.31-4.49,3-.5,2-2,1.49-3.82,2.33.17,7.3-2.49L62,3.92l6.14-2L76,1.09l4.32,1,2.49-1,5.15,2.49,3.48-.33,6.48.67,4.82,4,5.48.67,2.65,1.49,4,4,2.66,1L121,19.19l4.65,7.14,1.5.83,10.63,1,4.15,1.33-3.82,3.82L137.73,38l-2.49,6,3.82-.5Z"/></g></g></svg>