<svg xmlns="http://www.w3.org/2000/svg" viewBox="0 0 99.94 69.66"><defs><style>.cls-1{fill:#d3d3d3;stroke:#d3d3d3;stroke-miterlimit:10;stroke-width:2px;}</style></defs><g id="Camada_2" data-name="Camada 2"><g id="_3D" data-name="3D"><path id="SC" class="cls-1" d="M96.1,37.72l.83-5.65,1.66.83ZM95.43,1V4.5L92.61,7.66,95.1,10l-1.33,6,.83,2.33.17,7.8,1,1.66-1.5,3.16,1.33,7.14-2.16,10.3-4.32,6.14-7.3,5.65-6.48,8.13-2.82-2.15-3.82.49,2.49-6L71.52,56l3.82-3.82-4.15-1.33-10.63-1L59.07,49l-4.65-7.14-3.49-4.15-2.66-1-4-4-2.66-1.5-5.48-.66-4.82-4-6.47-.66-3.49.33-5.15-2.49-2.49,1-4.32-1-7.8.83,2.32-5.32-1-3.48L4.76,6.5l3,.66,2.49-1,4.32,2.49L19.87,8l6.31,1.83,5.15.66,2.83,2.33,9.13.5,2,1.49,2.83-1.33-1-3.65L50.93,6l4.32.5,3.32-3.82,12.62-1,6.48,4.15L85.8,1.18Z"/></g></g></svg>