<svg xmlns="http://www.w3.org/2000/svg" viewBox="0 0 166.74 109.7"><defs><style>.cls-1{fill:#d3d3d3;stroke:#d3d3d3;stroke-miterlimit:10;stroke-width:2px;}</style></defs><g id="Camada_2" data-name="Camada 2"><g id="_3D" data-name="3D"><path id="SP" class="cls-1" d="M153.45,51.45l3.32,3.82h7.31l1.33,1.83-3.49,3.16-4.15.33-3.66,2.16-1.32,4.65,2.49,2.49-4,.33L149,72.71,142.82,76,141,79.19l-6-1.5-7.31,4.16-5.65,2.32-6.8,4.15-.5,2.16L107,95.79l-3.49,1.5L99,101.11l-1.16,5-2.33,2-2.65-5.64-3.33-1.17-3.65-5.48-12.12-.16,1.33-6.31-1.83-4-4.82-5.15.83-3.32-1.82-4,.83-2.16L66.1,65.07l-2.49-.83-2.83-2.82-4.65.66-1.82-.66-7,.66-1.82-2.49-4.16-1L37.2,56.27l-2.82.66-6.64-1.49L25.25,54l-9,1.66-7.64-1-4,2.66,3.66-4.65,2.32-.83,8.31-6.15,1.32-3.32,4.65-5-1.16-2.16,4.32-4-.33-3.32,4.48-5.64.17-3.49,5.15-6.31L41,11.27l2.49-3.82,2.16-2,4-1.49L53.15,1.3l2,1.83,8.14,1h6.14L73.74,6l.16,2.66,2.66,2.49,5.32-2.49,5-.83L99,7.45l.83-2.33,3.65,1.16H107l3.66,3.16-1,4.15,2.49,2,.66,2.5-2,4.48,4.15,8.63,3.16.17,5.48,2,.33,1.17-3.32,5.64,1,3.32-1.5,6.15,1,2.16L125.39,54l1.16,6.64,3.82.33,4.65-.66,2.49-1.33.16-2.66,4.49-1,1.33,1,6.14-3.65Z"/></g></g></svg>