<svg xmlns="http://www.w3.org/2000/svg" viewBox="0 0 91.56 150.68"><defs><style>.cls-1{fill:#fff;stroke:#d3d3d3;stroke-miterlimit:10;stroke-width:2px;}</style></defs><g id="Camada_2" data-name="Camada 2"><g id="_3D" data-name="3D"><path id="TO" class="cls-1" d="M86.66,93.88l3.32.17-.83,1.66-5,2.82-4,3.32L81.51,104l-2.66,2-3.32,6.48,2.66,2.82,4.15.67,1.16,2.65-2.32.83,3.15,3.66-4.65,3.65.34,5.32,2.82,1.49-1.33,5.31-7.31,2.33-2.32,2.49-5.65.66-6.14,2.83-5.15-1.33L56.27,149,47,145.86l-8.64.16-2-1.66-1-4-4.15-3.65-1.49,1-5,9.47-4.65-1.33-10-4.48-.66-2.66,1.32-2.33-1.32-3.15-3,3.82-.67,2.82-2-.83-1-4.65.67-2.16-1-4.32.33-4-1-4.82,1-2.16-1.66-1.49,2.33-8.14.16-7,3.16-6.15.5-3.32,3-5.65,2.16-5.14,1-4.32,5.32-7.31L21.89,67l3.49-7.14,1.33-1,2-5.81.33-5-3.49-2.5V42.9l3.33-4.82-.17-6L32,29.94l5.81-2,.34-2.32,3-3.33L42.32,19,45,17.65l-1-2L46,14l-1.16-2.82,2.82-1.5L43,5l-2.82.5-3-1.16,3.49-2.66L44,1.05,47.3,2.71l2.82-.5,8.64,4.65.5,4.48,1.33,2.33-.34,4.15,1,2.33-1.33,5.48L58.76,34.1,56.6,36.75l2.16,2.16.33,3,3.65,4,4.82,6.8,2.66-1.49L75.37,50,77,51.2l-.34,8-3.82.17-2,1-1.66,5L69.55,67l-3,2.82,4.16,3.32,1.66,4.32,3.82,2.49-2.5,3.49L77,85.74l.33,2.49,2.16,2.83,4.65.83Z"/></g></g></svg>